<?xml version="1.0" standalone="no"?>
<!DOCTYPE svg PUBLIC "-//W3C//DTD SVG 1.1//EN" "http://www.w3.org/Graphics/SVG/1.1/DTD/svg11.dtd" >
<svg xmlns="http://www.w3.org/2000/svg">
  <metadata>Created by iconfont</metadata>
  <defs>
  <font id="iconfont" horiz-adv-x="1024">
    <font-face
      font-family="iconfont"
      font-weight="400"
      font-stretch="normal"
      units-per-em="1024"
      ascent="896"
      descent="-128"
    />
      <missing-glyph />
      
      <glyph glyph-name="warn3" unicode="&#58962;" d="M512-76.8A460.8 460.8 0 1 1 512 844.8a460.8 460.8 0 0 1 0-921.6z m4.835556 569.571556c13.198222 0 23.438222-2.844444 30.72-8.476445 7.224889-5.688889 10.865778-15.815111 10.865777-30.321778v-295.765333c0-14.506667-3.640889-24.632889-10.922666-30.264889-7.224889-5.688889-17.464889-8.533333-30.663111-8.533333-27.704889 0-41.528889 12.515556-41.528889 37.489778V455.338667c0 25.031111 13.824 37.489778 41.528889 37.489777z m0 54.556444a44.828444 44.828444 0 0 0-32.995556 13.255111 44.828444 44.828444 0 0 0-13.312 33.052445c0 13.198222 4.437333 24.234667 13.255111 33.052444a44.828444 44.828444 0 0 0 33.052445 13.312c13.198222 0 24.234667-4.437333 33.052444-13.312 8.874667-8.817778 13.312-19.854222 13.312-32.995556a44.828444 44.828444 0 0 0-13.312-33.109333 44.828444 44.828444 0 0 0-32.995556-13.255111z"  horiz-adv-x="1024" />
      
      <glyph glyph-name="city" unicode="&#58960;" d="M160 0h-64V768a64 64 0 0 0 64 64h384a64 64 0 0 0 64-64v-768h-64V768h-384v-768z m704 416h64V0h-64v416zM80-64a32 32 0 1 0 0 64H928a32 32 0 1 0 0-64H80zM971.648 413.824a32 32 0 0 0-23.296-59.648l-384.213333 149.973333a32 32 0 0 0 23.296 59.605334l384.256-149.930667h-0.042667z m-267.264-103.850667a32 32 0 0 0 0-64h-128.64a32 32 0 1 0 0 64h128.64z m0-128a32 32 0 0 0 0-64h-128.64a32 32 0 1 0 0 64h128.64zM320 320a32 32 0 1 0-64 0V384a32 32 0 1 0 64 0v-64z m0 224a32 32 0 0 0-64 0v64a32 32 0 0 0 64 0v-64z m128 0a32 32 0 1 0-64 0v64a32 32 0 0 0 64 0v-64z m0-224a32 32 0 1 0-64 0V384a32 32 0 1 0 64 0v-64z m-128-352H256v213.973333h201.6v-213.973333h-64v149.973333H320v-149.973333z"  horiz-adv-x="1024" />
      
      <glyph glyph-name="recently" unicode="&#58959;" d="M960 384.853333a32 32 0 1 1-64-0.085333V384a384 384 0 1 0-72.106667 224H768a32 32 0 1 1 0-64h112a32 32 0 0 1 32 32V720a32 32 0 1 1-64 0v-39.68A446.890667 446.890667 0 0 1 512 832C264.576 832 64 631.424 64 384S264.576-64 512-64 960 136.576 960 384v0.853333zM720 352a32 32 0 0 1-32 32H512V560a32 32 0 1 1-64 0v-208a32 32 0 0 1 32-32h208a32 32 0 0 1 32 32z"  horiz-adv-x="1024" />
      
      <glyph glyph-name="customer" unicode="&#58958;" d="M543.050323 737.213935a325.532903 325.532903 0 0 0 326.094451-326.061419 325.532903 325.532903 0 0 0-326.061419-326.061419 325.532903 325.532903 0 0 0-326.094452 326.028387 325.532903 325.532903 0 0 0 326.094452 326.094451z m465.820903-279.452903c34.948129-5.84671 58.235871-29.134452 58.235871-64.08258v-168.860904a64.611097 64.611097 0 0 0-64.049549-64.049548h-46.575483a64.611097 64.611097 0 0 0-64.082581 64.082581v168.827871c0 29.101419 23.320774 58.235871 46.608516 64.08258-34.948129 197.92929-197.962323 355.162839-401.771355 355.162839-197.962323 0-366.823226-151.386839-401.738322-349.382194 34.915097-11.627355 58.202839-34.915097 58.202838-69.863225v-168.860904a64.611097 64.611097 0 0 0-64.049548-64.049548h-46.575484a64.611097 64.611097 0 0 0-64.049548 64.082581v168.827871c0 29.101419 23.287742 58.235871 52.422193 64.08258C106.363871 696.419097 304.326194 876.907355 537.236645 876.907355c238.724129 0 436.686452-180.488258 471.634581-419.179355z m-663.783226-432.061935h390.110968c34.948129 0 64.082581-29.134452 64.08258-64.082581a64.611097 64.611097 0 0 0-64.08258-64.016516h-390.110968a64.611097 64.611097 0 0 0-64.049548 64.049548c0 34.915097 29.134452 64.049548 64.08258 64.049549z"  horiz-adv-x="1090" />
      
      <glyph glyph-name="score-star" unicode="&#58957;" d="M468.495515 838.469818c18.587152 57.188848 99.452121 57.188848 118.039273 0L666.841212 591.282424a62.060606 62.060606 0 0 1 59.019636-42.883879h259.909819c60.105697 0 85.116121-76.924121 36.460606-112.267636l-210.230303-152.762182a62.060606 62.060606 0 0 1-22.559031-69.383757l80.306425-247.156364c18.587152-57.188848-46.855758-104.727273-95.511273-69.383758l-210.230303 152.762182a62.060606 62.060606 0 0 1-72.983273 0L280.824242-102.55515200000002c-48.655515-35.374545-114.098424 12.194909-95.511272 69.383758l80.306424 247.156364a62.060606 62.060606 0 0 1-22.55903 69.383757L32.79903 436.130909c-48.655515 35.374545-23.645091 112.267636 36.460606 112.267636h259.909819A62.060606 62.060606 0 0 1 388.189091 591.282424l80.306424 247.187394z"  horiz-adv-x="1055" />
      
      <glyph glyph-name="discount" unicode="&#58956;" d="M1021.748314 501.208397L976.782856 384.0593l44.965458-117.234421a31.91097 31.91097 0 0 0-9.726873-36.262466l-97.43938-78.838868-19.624394-123.974973a32.081617 32.081617 0 0 0-26.706239-26.620916l-123.88965-19.709717-78.924191-97.43938a31.91097 31.91097 0 0 0-36.34779-9.726873L511.9407-80.953503l-117.149097-44.880135a31.825647 31.825647 0 0 0-36.347789 9.726874l-78.924192 97.43938-123.974973 19.624393a31.996294 31.996294 0 0 0-26.450269 26.70624L109.214016 151.723545 11.945283 230.47709a31.91097 31.91097 0 0 0-9.726873 36.262466L47.013221 384.0593 2.133086 501.208397a31.996294 31.996294 0 0 0 9.726874 36.262466l97.439379 78.924191 19.709717 123.974973a32.081617 32.081617 0 0 0 26.535593 26.535593l123.974973 19.709717L358.443814 884.054717a31.91097 31.91097 0 0 0 36.347789 9.726873L511.9407 848.901456 629.175121 893.866914a32.081617 32.081617 0 0 0 36.262466-9.726874l78.924191-97.439379 123.88965-19.709717c13.651752-2.133086 24.48783-12.798518 26.620916-26.535593l19.709717-123.974973 97.43938-78.924192a31.996294 31.996294 0 0 0 9.726873-36.347789zM319.962938 543.955445c0-52.900539 43.088342-95.988881 95.988881-95.988881S511.9407 491.054906 511.9407 543.955445 468.852358 640.02965 415.951819 640.02965 319.962938 596.855984 319.962938 543.955445z m63.992587 0a31.996294 31.996294 0 1 0 63.992588 0 31.996294 31.996294 0 0 0-63.992588 0zM605.796495 187.815365a34.12938 34.12938 0 1 1 0 68.25876 34.12938 34.12938 0 0 1 0-68.25876z m0-59.726415a93.855795 93.855795 0 1 1 0 187.71159 93.855795 93.855795 0 0 1 0-187.71159z m-272.352452 5.972641a32.166941 32.166941 0 0 1 44.624164 7.508464l319.962938 447.862789a31.996294 31.996294 0 1 1-52.047305 37.201024l-319.962937-447.948112a31.996294 31.996294 0 0 1 7.42314-44.709488z"  horiz-adv-x="1024" />
      
      <glyph glyph-name="gift" unicode="&#58955;" d="M943.766588 655.058824h-109.447529c5.541647 15.540706 9.035294 32.647529 9.035294 50.176a150.407529 150.407529 0 0 1-276.058353 82.823529l-25.118118-33.611294-25.057882 34.153412A151.190588 151.190588 0 0 1 391.529412 855.8230590000001a150.407529 150.407529 0 0 1-150.588236-150.588235c0-17.528471 3.553882-34.635294 9.035295-50.176H140.649412C84.931765 655.058824 40.719059 610.364235 40.719059 554.6465880000001l-0.481883-552.116706A99.990588 99.990588 0 0 1 140.649412-97.88235299999997h803.117176a99.990588 99.990588 0 0 1 100.412236 100.412235V554.6465880000001A99.990588 99.990588 0 0 1 943.766588 655.058824z m-251.00047 100.412235c27.648 0 50.236235-22.588235 50.236235-50.236235A50.356706 50.356706 0 0 0 692.705882 655.058824a50.356706 50.356706 0 0 0-50.176 50.176c0 27.648 22.588235 50.236235 50.176 50.236235z m-301.176471 0c27.648 0 50.236235-22.588235 50.236235-50.236235A50.356706 50.356706 0 0 0 391.529412 655.058824a50.356706 50.356706 0 0 0-50.176 50.176c0 27.648 22.588235 50.236235 50.176 50.236235z m552.176941-752.941177H140.649412v100.352h803.117176v-100.352z m0 250.940236H140.649412v301.17647h254.976L291.237647 412.611765 372.555294 353.88235299999997l119.446588 162.635294 50.176 68.246588 50.236236-68.246588L711.860706 353.88235299999997l81.317647 58.729412-104.387765 142.034823h254.976v-301.17647z"  horiz-adv-x="1084" />
      
      <glyph glyph-name="help" unicode="&#58954;" d="M544.836267 896c263.5776-0.068267 478.685867-215.313067 478.208-478.549333-0.546133-264.123733-215.313067-478.685867-478.549334-478.071467a478.8224 478.8224 0 0 0-477.866666 478.208C66.3552 680.8917329999999 281.3952 896 544.904533 895.931733z m433.015466-478.276267A433.152 433.152 0 0 1 545.109333 850.5344C306.312533 851.1488 112.093867 657.271467 111.889067 417.792c-0.273067-238.523733 193.536-432.128 432.674133-432.810667 238.250667-0.682667 433.3568 194.218667 433.288533 432.810667zM571.528533 263.168h-60.757333c0 12.0832-0.682667 24.029867 0.136533 35.84 1.570133 23.893333 7.099733 46.6944 19.592534 67.515733a200.021333 200.021333 0 0 0 35.771733 43.008c17.066667 15.906133 34.269867 31.607467 50.9952 47.854934 9.8304 9.557333 18.568533 20.2752 23.074133 33.5872 10.922667 31.880533 3.959467 60.347733-17.271466 85.742933-35.2256 42.052267-94.071467 43.485867-130.184534 22.459733-22.7328-13.312-36.317867-33.5872-44.305066-58.026666-3.549867-10.922667-6.007467-22.3232-9.216-34.338134l-64.7168 7.714134c0.887467 5.5296 1.4336 10.717867 2.4576 15.906133 5.461333 28.8768 15.5648 55.773867 34.4064 78.848a145.134933 145.134933 0 0 0 88.064 51.268267 216.8832 216.8832 0 0 0 109.226666-5.3248c45.806933-14.882133 79.735467-43.895467 95.095467-90.180267 14.813867-44.4416 7.509333-86.4256-21.572267-123.904-18.432-23.7568-41.437867-43.144533-63.010133-63.829333-9.489067-9.079467-19.114667-18.295467-27.306667-28.4672-12.288-15.1552-16.930133-33.450667-18.432-52.565334-0.750933-10.922667-1.365333-21.7088-2.048-33.109333z m-64.7168-128.477867V206.506667h71.953067v-71.8848H506.811733z"  horiz-adv-x="1024" />
      
      <glyph glyph-name="00-06-1" unicode="&#58942;" d="M296.618667 736.341333c54.058667 44.842667 118.698667 72.106667 178.730666 58.752a27.733333 27.733333 0 0 0 20.736-34.474666c-66.474667-240.896-18.474667-388.437333 62.506667-476.8 82.517333-90.112 204.501333-124.714667 295.765333-128.085334a27.733333 27.733333 0 0 0 23.210667-41.216c-59.946667-107.946667-172.288-145.92-278.698667-147.882666-105.898667-1.962667-213.376 31.274667-273.749333 74.88C224.341333 114.346667 168.234667 200.96 145.493333 290.133333c-22.698667 88.832-11.733333 178.048 17.92 255.744 29.610667 77.568 78.336 144.896 133.205334 190.464zM199.253333 303.872c19.242667-75.52 67.157333-151.466667 158.378667-217.386667 48.981333-35.413333 144.170667-66.133333 240.256-64.384 80.128 1.493333 155.605333 25.301333 205.44 82.474667-93.397333 12.714667-204.714667 53.461333-285.610667 141.738667-92.885333 101.461333-140.842667 260.352-83.626666 496.170666-30.634667-2.944-66.133333-19.072-101.973334-48.810666-47.146667-39.125333-90.453333-98.432-116.821333-167.552-26.325333-68.992-35.413333-146.432-16.042667-222.293334z"  horiz-adv-x="1024" />
      
      <glyph glyph-name="12-18-1" unicode="&#58949;" d="M705.706667 572.544a27.733333 27.733333 0 0 0 0 39.253333l90.538666 90.453334a27.733333 27.733333 0 1 0 39.210667-39.210667L744.96 572.586667a27.733333 27.733333 0 0 0-39.253333 0zM705.706667 190.293333a27.733333 27.733333 0 0 0 39.253333 0l90.453333-90.538666a27.733333 27.733333 0 1 0-39.168-39.210667l-90.538666 90.538667a27.733333 27.733333 0 0 0 0 39.210666zM512 654.933333a27.733333 27.733333 0 0 0-27.733333 27.733334V810.666667a27.733333 27.733333 0 1 0 55.466666 0v-128a27.733333 27.733333 0 0 0-27.733333-27.733334zM512-70.4a27.733333 27.733333 0 0 0-27.733333 27.733333v128a27.733333 27.733333 0 1 0 55.466666 0v-128a27.733333 27.733333 0 0 0-27.733333-27.733333zM323.413333 572.586667a27.733333 27.733333 0 0 0-39.210666 0l-90.453334 90.453333a27.733333 27.733333 0 0 0 39.168 39.253333l90.538667-90.538666a27.733333 27.733333 0 0 0 0-39.210667zM323.413333 190.293333a27.733333 27.733333 0 0 0 0-39.253333l-90.453333-90.453333a27.733333 27.733333 0 1 0-39.253333 39.168l90.496 90.538666a27.733333 27.733333 0 0 0 39.253333 0zM57.6 384a27.733333 27.733333 0 0 0 27.733333 27.733333h128a27.733333 27.733333 0 1 0 0-55.466666H85.333333a27.733333 27.733333 0 0 0-27.733333 27.733333zM782.933333 384a27.733333 27.733333 0 0 0 27.733334 27.733333h128a27.733333 27.733333 0 1 0 0-55.466666h-128a27.733333 27.733333 0 0 0-27.733334 27.733333zM512 526.933333a142.933333 142.933333 0 1 1 0-285.866666 142.933333 142.933333 0 0 1 0 285.866666zM313.6 384a198.4 198.4 0 1 0 396.8 0 198.4 198.4 0 0 0-396.8 0z"  horiz-adv-x="1024" />
      
      <glyph glyph-name="06-12" unicode="&#58950;" d="M308.992 302.933333v0.128l0.256 1.152 1.066667 5.12a256.981333 256.981333 0 0 0 32.64 78.976c26.752 42.24 72.192 83.2 151.978666 83.2 79.786667 0 125.226667-40.96 151.978667-83.157333a256.981333 256.981333 0 0 0 33.706667-84.138667l0.213333-1.152v-0.170666h0.042667v-0.042667a27.733333 27.733333 0 0 1 54.784 8.661333l-27.392-4.266666 27.392 4.266666v0.128l-0.042667 0.213334-0.128 0.597333a295.893333 295.893333 0 0 1-8.362667 33.109333 312.405333 312.405333 0 0 1-33.365333 72.533334c-34.133333 53.76-95.317333 108.842667-198.826667 108.842666s-164.693333-55.04-198.826666-108.885333a312.32 312.32 0 0 1-41.728-105.6l-0.128-0.597333v-0.213334l-0.042667-0.085333 27.392-4.352-27.392 4.266667a27.733333 27.733333 0 0 1 54.784-8.576m0-0.042667zM690.773333 502.144a27.733333 27.733333 0 0 0 0 39.253333l90.538667 90.453334a27.733333 27.733333 0 0 0 39.210667-39.210667L730.026667 502.186667a27.733333 27.733333 0 0 0-39.253334 0zM497.066667 584.533333a27.733333 27.733333 0 0 0-27.733334 27.733334v128a27.733333 27.733333 0 1 0 55.466667 0v-128a27.733333 27.733333 0 0 0-27.733333-27.733334zM308.48 502.186667a27.733333 27.733333 0 0 0-39.210667 0l-90.453333 90.453333a27.733333 27.733333 0 0 0 39.168 39.253333l90.538667-90.538666a27.733333 27.733333 0 0 0 0-39.210667zM42.666667 313.6a27.733333 27.733333 0 0 0 27.733333 27.733333h128a27.733333 27.733333 0 1 0 0-55.466666h-128a27.733333 27.733333 0 0 0-27.733333 27.733333zM768 313.6a27.733333 27.733333 0 0 0 27.733333 27.733333h128a27.733333 27.733333 0 1 0 0-55.466666h-128a27.733333 27.733333 0 0 0-27.733333 27.733333zM128 185.6a27.733333 27.733333 0 0 0 27.733333 27.733333h682.666667a27.733333 27.733333 0 1 0 0-55.466666h-682.666667a27.733333 27.733333 0 0 0-27.733333 27.733333zM256 57.6a27.733333 27.733333 0 0 0 27.733333 27.733333h426.666667a27.733333 27.733333 0 1 0 0-55.466666h-426.666667a27.733333 27.733333 0 0 0-27.733333 27.733333z"  horiz-adv-x="1024" />
      
      <glyph glyph-name="18-00-1" unicode="&#58951;" d="M326.058667 337.066667v0.128l0.256 1.152a241.322667 241.322667 0 0 0 6.4 24.618666c5.12 16.426667 13.738667 38.101333 27.306666 59.52C386.773333 464.682667 432.213333 505.6 512 505.6c79.786667 0 125.226667-40.96 151.978667-83.114667a256.853333 256.853333 0 0 0 33.706666-84.138666l0.213334-1.152 0.042666-0.170667v-0.042667a27.733333 27.733333 0 0 1 54.784 8.661334L725.333333 341.333333l27.392 4.309334v0.128l-0.042666 0.213333-0.085334 0.597333a149.162667 149.162667 0 0 1-1.834666 9.088 312.362667 312.362667 0 0 1-39.936 96.512C676.693333 505.984 615.509333 561.066667 512 561.066667c-103.466667 0-164.693333-55.04-198.826667-108.885334a312.32 312.32 0 0 1-41.728-105.6l-0.128-0.597333v-0.298667h-0.042666L298.666667 341.333333l-27.392 4.266667a27.733333 27.733333 0 0 1 54.784-8.576m0-0.042667zM705.706667 529.877333a27.733333 27.733333 0 0 0 0 39.253334l90.538666 90.453333a27.733333 27.733333 0 0 0 39.210667-39.210667L744.917333 529.92a27.733333 27.733333 0 0 0-39.210666 0zM512 612.266667a27.733333 27.733333 0 0 0-27.733333 27.733333V768a27.733333 27.733333 0 1 0 55.466666 0v-128a27.733333 27.733333 0 0 0-27.733333-27.733333zM323.413333 529.92a27.733333 27.733333 0 0 0-39.210666 0l-90.453334 90.453333a27.733333 27.733333 0 0 0 39.168 39.253334l90.538667-90.538667a27.733333 27.733333 0 0 0 0-39.210667zM57.6 341.333333a27.733333 27.733333 0 0 0 27.733333 27.733334h853.333334a27.733333 27.733333 0 1 0 0-55.466667H85.333333a27.733333 27.733333 0 0 0-27.733333 27.733333zM426.666667 213.333333a21.333333 21.333333 0 0 0 21.333333 21.333334h128a21.333333 21.333333 0 0 0 21.333333-21.333334v-106.666666h42.666667a21.333333 21.333333 0 0 0 15.104-36.437334l-128-128a21.333333 21.333333 0 0 0-30.165333 0l-128 128A21.333333 21.333333 0 0 0 384 106.666667h42.666667V213.333333z m42.666666-21.333333V85.333333a21.333333 21.333333 0 0 0-21.333333-21.333333h-12.501333L512-12.501333l76.501333 76.501333H576a21.333333 21.333333 0 0 0-21.333333 21.333333v106.666667h-85.333334z"  horiz-adv-x="1024" />
      
      <glyph glyph-name="Success" unicode="&#58941;" d="M512-128a512 512 0 1 0 0 1024 512 512 0 0 0 0-1024z m-75.1872 377.1904l-146.432 148.1984L193.792 305.15200000000004c70.2208-37.8112 168.6016-106.7776 252.8768-213.7344 59.52 111.9232 243.0464 340.864 332.288 361.344-14.4128 57.7024-22.528 166.016 0 223.8208-183.0144-120.704-342.1696-427.392-342.1696-427.392z"  horiz-adv-x="1024" />
      
      <glyph glyph-name="searchwarn" unicode="&#58940;" d="M512.576 888c69.248 0 134.528-13.12 195.712-39.296 61.184-26.24 114.688-62.208 160.512-108.096a506.432 506.432 0 0 0 107.968-160.64c26.176-61.312 39.232-126.592 39.232-195.968a493.568 493.568 0 0 0-39.232-195.968 506.432 506.432 0 0 0-107.968-160.64 505.792 505.792 0 0 0-160.512-108.096 491.968 491.968 0 0 0-195.712-39.296 496.128 496.128 0 0 0-196.288 39.296 497.344 497.344 0 0 0-160.512 108.096 519.68 519.68 0 0 0-107.968 160.64A487.296 487.296 0 0 0 8 384c0 69.376 13.248 134.656 39.808 195.904a519.616 519.616 0 0 0 107.968 160.704A497.408 497.408 0 0 0 316.288 848.704 496.128 496.128 0 0 0 512.576 888z m220.544-575.68c22.336 0 40.96 6.976 56 20.8 14.976 13.888 22.528 31.616 22.528 53.184 0 22.4-7.552 39.68-22.528 52.032-15.04 12.352-33.664 18.496-56 18.496h-442.24c-22.336 0-40.96-6.144-56-18.56-14.976-12.288-22.528-29.632-22.528-51.968 0-21.568 7.552-39.296 22.528-53.12 15.04-13.888 33.664-20.864 56-20.864h442.24z"  horiz-adv-x="1024" />
      
      <glyph glyph-name="Frame" unicode="&#58893;" d="M0 384a512 512 0 1 1 1024 0A512 512 0 0 1 0 384zM804.288 616a30.464 30.464 0 0 1-28.672 28.48c-81.792 2.944-202.304 63.04-246.4 86.528a35.712 35.712 0 0 1-33.92 0c-44.096-23.424-164.608-83.584-246.4-86.528a30.528 30.528 0 0 1-28.992-30.272v-325.76s1.024-103.168 116.224-181.76c0 0 14.72-11.264 50.304-28.48 145.28 32.64 333.568 153.216 417.92 537.792z m-326.4-249.088l-93.696 7.68c-9.856 9.92-35.648-34.56-25.728-24.704 9.856 9.856 18.112 1.216 27.968-8.704l210.944-52.672c9.92 9.92 41.408 105.408 51.2 95.488 9.92-9.92 32.32 73.28 22.528 63.488L505.6 374.592c-94.976-94.976 65.664-99.008-27.712-7.68zM537.28 37.632c110.912 37.952 151.04 69.12 151.04 69.12 115.264 78.528 116.16 181.76 116.16 181.76V614.208a10.752 10.752 0 0 1-0.192 1.792c-84.416-384.64-272.64-505.088-417.984-537.792 23.68-11.392 56.448-25.408 100.672-40.576 16.32-5.632 33.984-5.632 50.304 0zM509.44 192L417.28 352.768v37.888H448c18.112 0 33.28 3.904 45.568 11.776a54.4 54.4 0 0 1 23.552 33.792H417.28v37.888h99.328a60.992 60.992 0 0 1-18.944 32.256c-9.6 8.896-22.848 13.312-39.936 13.312H417.28v37.888h230.912v-37.888H567.808c11.968-12.992 19.456-28.16 22.528-45.568h57.856v-37.888H591.36c-3.392-25.28-13.12-45.056-29.184-59.392-16-14.016-36.672-23.552-61.952-28.672L600.576 192H509.44z"  horiz-adv-x="1024" />
      
      <glyph glyph-name="apple" unicode="&#58948;" d="M658.80064 760.66816c26.46016 30.47424 44.76928 72.33536 44.76928 114.19648 0 5.7344-0.53248 11.8784-1.59744 16.54784-42.63936-1.55648-94.45376-27.40224-125.21472-62.54592-24.28928-26.33728-46.98112-68.1984-46.98112-110.592 0-6.18496 1.10592-12.9024 1.6384-14.99136 2.70336-0.49152 7.00416-1.024 11.30496-1.024 38.912 0 87.4496 24.82176 116.08064 58.40896z m30.22848-67.1744c-64.79872 0-117.1456-37.76512-150.60992-37.76512-35.6352 0-83.1488 35.6352-139.264 35.6352C292.82304 691.4048 184.32 606.69952 184.32 448.02048c0-99.77856 40.46848-204.14464 89.62048-271.89248 42.5984-57.344 79.872-103.87456 132.75136-103.87456 52.92032 0 76.67712 33.5872 142.5408 33.5872 66.3552 0 81.5104-32.5632 139.79648-32.5632 58.28608 0 96.62464 50.66752 132.79232 100.80256 41.00096 57.344 58.28608 113.17248 58.81856 116.3264-3.2768 0.98304-114.44224 43.90912-114.44224 165.888 0 104.89856 87.4496 151.9616 92.32384 155.56608-57.22112 79.58528-145.2032 81.63328-169.49248 81.63328z"  horiz-adv-x="1024" />
      
      <glyph glyph-name="android" unicode="&#58945;" d="M290.816 174.61248c0-20.64384 16.5888-37.56032 36.864-37.56032h36.864v-131.39968c0-31.1296 24.69888-56.32 55.296-56.32a55.7056 55.7056 0 0 1 55.296 56.32v131.39968h73.728v-131.39968c0-31.1296 24.69888-56.32 55.296-56.32a55.7056 55.7056 0 0 1 55.296 56.32v131.39968h36.864c20.2752 0 36.864 16.91648 36.864 37.56032V550.0928H290.816v-375.48032zM198.656 550.0928A55.7056 55.7056 0 0 1 143.36 493.7728v-262.84032c0-31.1296 24.69888-56.32 55.296-56.32a55.7056 55.7056 0 0 1 55.296 56.32V493.7728a55.7056 55.7056 0 0 1-55.296 56.32z m626.688 0A55.7056 55.7056 0 0 1 770.048 493.7728v-262.84032c0-31.1296 24.69888-56.32 55.296-56.32A55.7056 55.7056 0 0 1 880.64 230.93248000000006V493.7728a55.7056 55.7056 0 0 1-55.296 56.32z m-183.21408 219.25888l47.9232 48.82432a18.8416 18.8416 0 0 1 0 26.624 18.0224 18.0224 0 0 1-26.17344 0l-54.55872-55.54176A212.09088 212.09088 0 0 1 512 812.93312c-35.38944 0-68.56704-8.64256-98.05824-23.67488L359.0144 844.84096a18.0224 18.0224 0 0 1-26.17344 0 18.8416 18.8416 0 0 1 0-26.66496l48.29184-49.19296A225.97632 225.97632 0 0 1 290.816 587.65312h442.368a225.28 225.28 0 0 1-91.05408 181.69856zM438.272 662.7328h-36.864v37.56032h36.864v-37.56032z m184.32 0h-36.864v37.56032h36.864v-37.56032z"  horiz-adv-x="1024" />
      
      <glyph glyph-name="enablednocheck" unicode="&#59310;" d="M128 686.933333C128 731.733333 164.266667 768 209.066667 768h597.333333c44.8 0 81.066667-36.266667 81.066667-81.066667v-597.333333a81.066667 81.066667 0 0 0-81.066667-81.066667h-597.333333A81.066667 81.066667 0 0 0 128 89.60000000000002v597.333333z m81.066667 4.266667a4.266667 4.266667 0 0 1-4.266667-4.266667v-597.333333a4.266667 4.266667 0 0 1 4.266667-4.266667h597.333333a4.266667 4.266667 0 0 1 4.266667 4.266667v597.333333a4.266667 4.266667 0 0 1-4.266667 4.266667h-597.333333z"  horiz-adv-x="1024" />
      
      <glyph glyph-name="add-photo" unicode="&#58889;" d="M512 4.181333c-209.408 0-379.818667 170.368-379.818667 379.818667 0 209.408 170.410667 379.818667 379.818667 379.818667 209.493333 0 379.818667-170.368 379.818667-379.818667 0-209.493333-170.368-379.818667-379.818667-379.818667z m0 712.874667c-183.68 0-333.056-149.376-333.056-333.056 0-183.637333 149.376-333.056 333.056-333.056 183.637333 0 333.056 149.376 333.056 333.056S695.637333 717.056 512 717.056zM512 580.266667a25.6 25.6 0 0 0 25.6-25.6v-341.333334a25.6 25.6 0 1 0-51.2 0V554.666667a25.6 25.6 0 0 0 25.6 25.6zM708.266667 384a25.6 25.6 0 0 0-25.6-25.6H341.333333a25.6 25.6 0 1 0 0 51.2h341.333334a25.6 25.6 0 0 0 25.6-25.6z"  horiz-adv-x="1024" />
      
      <glyph glyph-name="enabledcheck" unicode="&#58887;" d="M128 768m85.333333 0l597.333334 0q85.333333 0 85.333333-85.333333l0-597.333334q0-85.333333-85.333333-85.333333l-597.333334 0q-85.333333 0-85.333333 85.333333l0 597.333334q0 85.333333 85.333333 85.333333ZM755.2 542.506667a42.666667 42.666667 0 0 0 0.64-60.330667l-250.453333-256a42.666667 42.666667 0 0 0-61.013334 0l-133.546666 136.533333a42.666667 42.666667 0 1 0 61.013333 59.648l103.04-105.344 219.946667 224.853334a42.666667 42.666667 0 0 0 60.330666 0.64z"  horiz-adv-x="1024" />
      
      <glyph glyph-name="History" unicode="&#58885;" d="M821.5296 438.4512h-88.4736v197.3504C733.056 722.8928 653.824 793.6 556.1856 793.6H202.4704C104.832 793.6 25.6 722.8928 25.6 635.8016v-710.1952h972.8V280.65279999999996c0 87.2192-79.232 157.7984-176.8704 157.7984z m-176.8448-433.9968H114.0992V635.8016c0 43.4944 39.6032 78.9504 88.4736 78.9504h353.7408c48.7424 0 88.4736-35.328 88.4736-78.9504v-631.3472h-0.1024z m265.216 0h-176.8448V359.6032h88.4736c48.768 0 88.4992-35.328 88.4992-78.9504v-276.224h-0.128zM512 473.6H230.4v76.8h281.6v-76.8zM513.3312 217.60000000000002H226.432v76.8h286.8992v-76.8zM513.3312 89.60000000000002H226.432v76.8h286.8992v-76.8zM408.2944 640v-256h-76.8V640h76.8z"  horiz-adv-x="1024" />
      
      <glyph glyph-name="Fire" unicode="&#58886;" d="M439.04 50.559999999999945s-312.32 68.608-172.8 409.28c0 0 32-37.888 27.36-56.128 0 0 24.8 86.08 78.4 137.408 46.08 44.288 92.8 168.416 49.76 213.184 0 0 213.6-44.8 237.44-269.184 0 0 27.36 71.52 83.36 78.528a153.344 153.344 0 0 1 0-98.208s176.96-302.752-128-405.12c0 0 91.36 103.808-102.4 281.824 0 0-45.76-96-72.96-128.928-0.16 0-76.48-85.568-0.16-162.656z"  horiz-adv-x="1024" />
      
      <glyph glyph-name="Daily" unicode="&#58884;" d="M668.444444 649.386667h-5.688888v-5.688889c0-65.223111-54.584889-118.414222-122.311112-118.414222s-122.311111 53.191111-122.311111 118.442666v5.688889H121.543111A98.759111 98.759111 0 0 1 22.755556 550.627556v-558.535112a98.787556 98.787556 0 0 1 98.787555-98.787555h837.802667a98.787556 98.787556 0 0 1 98.787555 98.787555V550.627556a98.787556 98.787556 0 0 1-98.816 98.787555H668.444444z m285.212445-104.448v-547.157334H127.203556V544.938667h209.92A227.441778 227.441778 0 0 1 540.444444 420.807111a227.441778 227.441778 0 0 1 203.292445 124.131556h209.92zM936.106667 598.072889h-93.098667V737.706667c0 25.656889-18.289778 46.535111-40.732444 46.535111H278.613333c-22.442667 0-40.704-20.878222-40.704-46.535111v-139.662223H144.782222v139.662223c0 76.999111 60.017778 139.633778 133.831111 139.633777h523.633778c73.784889 0 133.802667-62.634667 133.802667-139.662222v-139.605333zM796.444444 80.38400000000001H284.444444a46.535111 46.535111 0 0 0 0 93.070222h512a46.535111 46.535111 0 1 0 0-93.098666z"  horiz-adv-x="1080" />
      
      <glyph glyph-name="Vector" unicode="&#58882;" d="M512 830.9248a458.752 458.752 0 0 0 200.704-871.424v-81.3568l-21.0432 21.0944 0.3328 1.28-131.0208 131.0208a344.1152 344.1152 0 0 1 20.5312 677.632l-119.168 119.04c16.4864 1.792 33.0752 2.688 49.664 2.7136zM311.2448 874.496l160.6144-160.5632a344.1152 344.1152 0 0 1-17.152-681.1392l115.84-115.712A458.752 458.752 0 0 0 311.296 784.7424L311.2448 874.496z m248.8576-272.9472v-33.3312a200.7552 200.7552 0 0 0 105.2928-60.8512l28.8512 16.6912 43.008-74.5472-28.8-16.64a200.6016 200.6016 0 0 0 0-121.5488l28.8-16.64-43.008-74.5472-28.928 16.6912a200.448 200.448 0 0 0-105.1392-60.7744v-33.28h-86.016v33.28a200.448 200.448 0 0 0-105.2928 60.7744l-28.9024-16.64-43.008 74.496 28.8512 16.5888a200.576 200.576 0 0 0 0 121.6L296.96 449.536l43.008 74.5472 28.9024-16.64a200.448 200.448 0 0 0 105.216 60.8v33.28h86.016v0.0512z m-43.008-114.688a114.688 114.688 0 1 1 0-229.4272 114.688 114.688 0 0 1 0 229.4272z m0-57.344a57.344 57.344 0 1 0 0-114.688 57.344 57.344 0 0 0 0 114.688z"  horiz-adv-x="1024" />
      
      <glyph glyph-name="quxiao" unicode="&#58890;" d="M501.76-107.52C224.62464-107.52 0 117.1456 0 394.24 0 671.37536 224.62464 896 501.76 896 778.8544 896 1003.52 671.37536 1003.52 394.24c0-277.0944-224.6656-501.76-501.76-501.76z m0 59.02336c244.5312 0 442.73664 198.20544 442.73664 442.73664 0 244.5312-198.20544 442.73664-442.73664 442.73664-244.5312 0-442.73664-198.20544-442.73664-442.73664 0-244.5312 198.20544-442.73664 442.73664-442.73664zM351.8464 203.73504a38.13376 38.13376 0 1 0-53.94432 53.90336l340.50048 340.50048A38.13376 38.13376 0 0 0 692.224 544.1536L351.8464 203.69408zM638.3616 203.73504a38.13376 38.13376 0 1 1 53.90336 53.90336L351.8464 598.13888A38.13376 38.13376 0 0 1 297.90208 544.1536l340.50048-340.45952h-0.04096z"  horiz-adv-x="1024" />
      
      <glyph glyph-name="kongxingxing" unicode="&#59068;" d="M632.576 785.92a12.8 12.8 0 0 1-22.912 0l-108.544-219.904a89.6 89.6 0 0 0-67.456-49.024l-242.688-35.2a12.8 12.8 0 0 1-7.04-21.76l175.616-171.264a89.6 89.6 0 0 0 25.6-79.36l-41.344-241.664a12.8 12.8 0 0 1 18.56-13.44l217.088 114.048a89.6 89.6 0 0 0 83.328 0l217.088-114.048a12.8 12.8 0 0 1 18.56 13.44l-41.472 241.664a89.6 89.6 0 0 0 25.856 79.36l175.616 171.136a12.8 12.8 0 0 1-7.168 21.76L808.576 517.12a89.6 89.6 0 0 0-67.456 49.024L632.576 785.92zM540.8 819.968a89.6 89.6 0 0 0 160.64 0l108.544-219.904a12.8 12.8 0 0 1 9.728-7.04l242.688-35.2a89.6 89.6 0 0 0 49.664-152.832L936.448 233.728a12.8 12.8 0 0 1-3.84-11.264l41.6-241.664a89.6 89.6 0 0 0-130.048-94.464L627.2 0.384a12.8 12.8 0 0 1-11.904 0l-217.088-114.048a89.6 89.6 0 0 0-129.92 94.464l41.472 241.664a12.8 12.8 0 0 1-3.84 11.264L130.432 404.992a89.6 89.6 0 0 0 49.664 152.832l242.688 35.2a12.8 12.8 0 0 1 9.6 7.04L540.8 819.968z"  horiz-adv-x="1152" />
      
      <glyph glyph-name="fullStar" unicode="&#58881;" d="M560.4352 36.86400000000003a40.96 40.96 0 0 1-38.1952 0L282.112-89.39520000000005a40.96 40.96 0 0 0-59.392 43.2128l45.7728 267.4688a40.96 40.96 0 0 1-11.776 36.2496L62.464 446.976a40.96 40.96 0 0 0 22.6304 69.8368l268.5952 39.0144a40.96 40.96 0 0 1 30.8224 22.4256L504.6272 821.5552a40.96 40.96 0 0 0 73.4208 0l120.1152-243.3024a40.96 40.96 0 0 1 30.8224-22.4256l268.5952-39.0144a40.96 40.96 0 0 0 22.6304-69.8368l-194.2528-189.44a40.96 40.96 0 0 1-11.776-36.2496l45.8752-267.4688a40.96 40.96 0 0 0-59.392-43.2128L560.3328 36.86400000000003z"  horiz-adv-x="1126" />
      
      <glyph glyph-name="info" unicode="&#58883;" d="M32 768A96 96 0 0 0 128 864h768A96 96 0 0 0 992 768v-458.688a32 32 0 0 0-64 0V768a32 32 0 0 1-32 32H128a32 32 0 0 1-32-32v-768a32 32 0 0 1 32-32h448a32 32 0 0 0 0-64H128A96 96 0 0 0 32 0V768zM256 608a32 32 0 0 0 32 32h448a32 32 0 0 0 0-64h-448a32 32 0 0 0-32 32zM256 384a32 32 0 0 0 32 32h448a32 32 0 0 0 0-64h-448A32 32 0 0 0 256 384zM256 160a32 32 0 0 0 32 32H512a32 32 0 0 0 0-64H288a32 32 0 0 0-32 32zM713.344 182.65599999999995a32 32 0 0 0 45.312 0l224-224a32 32 0 0 0-45.312-45.312l-224 224a32 32 0 0 0 0 45.248zM960 154.688a32 32 0 0 0 32-32V-64a32 32 0 0 0-32-32h-186.688a32 32 0 1 0 0 64H928v154.688a32 32 0 0 0 32 32z"  horiz-adv-x="1024" />
      
      <glyph glyph-name="mdi_flight" unicode="&#58880;" d="M768 204.8v68.266667l-287.445333 170.666666V631.466667C480.554667 659.797333 456.533333 682.666667 426.666667 682.666667s-53.888-22.869333-53.888-51.2v-187.733334L85.333333 273.066667v-68.266667l287.445334 85.333333v-187.733333l-71.850667-51.2V0L426.666667 34.133333l125.738666-34.133333v51.2l-71.850666 51.2v187.733333l287.445333-85.333333zM938.666667 28.416v28.458667L824.917333 128v78.208a21.333333 21.333333 0 1 1-42.666666 0V128l-113.792-71.125333v-28.458667l113.792 35.584v-78.250667l-28.458667-21.333333v-21.333333L803.584-42.666667l49.749333-14.250666v21.333333l-28.416 21.333333V64l113.749334-35.584z"  horiz-adv-x="1024" />
      
      <glyph glyph-name="xiangshou" unicode="&#58939;" d="M512.688213 78.421333a48.085333 48.085333 0 1 1-96.128 0v-152.704a48.085333 48.085333 0 0 1 96.128 0v152.704zM343.00288-71.424a28.288 28.288 0 0 1 0-56.576h243.2a28.288 28.288 0 1 1 0 56.576h-243.2zM905.349547 526.848a80.938667 80.938667 0 1 1-137.557334 85.248l-284.16-458.453333a80.938667 80.938667 0 1 1 137.557334-85.290667l284.16 458.496zM405.296213 797.013333a114.304 114.304 0 1 1 0-228.650666 114.304 114.304 0 0 1 0 228.608z m0 14.677334a25.856 25.856 0 0 1 25.856 25.898666V869.973333a25.898667 25.898667 0 0 1-51.754666 0v-32.426666c0-14.336 11.605333-25.941333 25.898666-25.941334z m0-258.005334a25.898667 25.898667 0 0 1-25.898666-25.898666v-32.426667a25.898667 25.898667 0 1 1 51.754666 0v32.426667a25.856 25.856 0 0 1-25.856 25.898666z m187.306667 154.88h-32.426667a25.856 25.856 0 1 1 0-51.754666h32.426667a25.856 25.856 0 1 1 0 51.754666zM276.31488 682.666667a25.856 25.856 0 0 1-25.898667 25.898666h-32.426666a25.898667 25.898667 0 0 1 0-51.754666h32.426666A25.898667 25.898667 0 0 1 276.357547 682.666667z m256.853333-91.221334a25.898667 25.898667 0 0 1-36.608-36.608l22.954667-22.954666a25.813333 25.813333 0 0 1 44.16 18.346666 25.856 25.856 0 0 1-7.594667 18.261334l-22.912 22.954666zM277.46688 773.888a25.770667 25.770667 0 0 1 32.682667-3.2 25.898667 25.898667 0 0 1 3.925333 39.808l-22.954667 22.912a25.898667 25.898667 0 0 1-36.650666-36.565333l22.954666-22.954667z m0-182.442667l-22.954667-22.954666a25.898667 25.898667 0 0 1 36.608-36.608l22.954667 22.954666a25.898667 25.898667 0 0 1-36.608 36.608z m237.354667 174.848c6.613333 0 13.226667 2.56 18.304 7.594667l22.954666 22.954667a25.898667 25.898667 0 0 1-36.608 36.608l-22.954666-22.954667a25.898667 25.898667 0 0 1 18.346666-44.202667zM90.288213 65.621333c-24.32 16.213333-35.754667 43.904-16.981333 72.96l88.32 125.226667c29.738667 42.197333 80.384 61.354667 110.805333 39.850667 30.293333-21.333333 21.674667-67.584-11.306666-106.88l-98.688-116.778667c-17.365333-21.376-47.957333-30.549333-72.149334-14.378667zM686.128213 464.938667c-22.613333 14.336-31.061333 41.472-17.834666 61.781333l53.504 81.877333c28.288 38.186667 50.901333 43.818667 85.632 17.578667 28.288-18.602667 28.586667-51.285333 7.253333-76.458667l-63.146667-74.666666a49.664 49.664 0 0 0-65.408-10.112zM269.701547 307.626667a80.938667 80.938667 0 0 1-61.696-149.632l303.573333-125.226667a80.938667 80.938667 0 0 1 61.738667 149.589333L269.744213 307.626667zM370.26688 420.053333m38.672279-18.024963l212.620189-99.101247q38.672279-18.024963 20.647315-56.697242l0 0q-18.024963-38.672279-56.697242-20.647316l-212.620189 99.101248q-38.672279 18.024963-20.647315 56.697242l0 0q18.024963 38.672279 56.697242 20.647315Z"  horiz-adv-x="1024" />
      
      <glyph glyph-name="mdi_location_on" unicode="&#58935;" d="M512 810.688A298.432 298.432 0 0 1 213.312 512C213.312 288 512-42.688 512-42.688S810.688 288 810.688 512A298.432 298.432 0 0 1 512 810.688z m0-405.376a106.688 106.688 0 1 0 0 213.44 106.688 106.688 0 0 0 0-213.44z"  horiz-adv-x="1024" />
      
      <glyph glyph-name="COVID-19" unicode="&#58931;" d="M635.465688 479.091619a23.629797 23.629797 0 0 0-0.827043-33.39678l-165.408577-157.531978a23.629797 23.629797 0 0 0-32.60912 0l-70.88939 67.502453a23.629797 23.629797 0 1 0 32.60912 34.223822L452.925508 337.903583l149.104018 141.975696a23.629797 23.629797 0 0 0 33.436162-0.78766zM930.050488 618.192356l-0.039383 0.78766c-0.472596 9.845749-0.748277 20.242859-0.945192 31.821459a108.539533 108.539533 0 0 1-102.159488 106.334086c-117.755154 6.537577-208.808637 44.896614-286.629435 120.787644l-0.669511 0.630128a65.533303 65.533303 0 0 1-89.044951 0L449.893017 877.883822c-77.820797-75.851648-168.874281-114.210684-286.629434-120.827027a108.50015 108.50015 0 0 1-102.159488-106.334086c-0.196915-11.460451-0.511979-21.896945-0.945192-31.782076l-0.039383-1.851001c-2.284214-120.039368-5.119789-269.458449 44.857231-405.093483 27.48933-74.552009 69.117156-139.415801 123.662603-192.661609 62.225132-60.689195 143.669164-108.854597 242.126651-143.196569a75.418435 75.418435 0 0 1 24.299307-4.135214 73.528051 73.528051 0 0 1 24.417457 4.135214c98.299955 34.381354 179.665221 82.58614 241.811587 143.275335 54.545448 53.324575 96.173273 118.148984 123.662603 192.740375 50.173935 136.028863 47.377743 285.723626 45.093529 405.999292zM495.065312 128.819265A255.477486 255.477486 0 0 0 239.863507 384.02107a255.477486 255.477486 0 0 0 255.201805 255.201805A255.477486 255.477486 0 0 0 750.267117 384.02107a255.477486 255.477486 0 0 0-255.201805-255.201805z"  horiz-adv-x="1024" />
      
      <glyph glyph-name="meal" unicode="&#58932;" d="M805.973333 813.738667h-3.2c-34.730667 0-44.373333-8.576-85.674666-78.165334-41.344-69.546667-155.434667-326.4-120.576-389.674666 31.701333-63.445333 158.464-39.210667 158.464-105.642667v-268.8c-0.341333-6.528 0.725333-13.056 3.114666-19.2 2.432-6.144 6.101333-11.733333 10.837334-16.512 4.778667-4.693333 10.496-8.533333 16.810666-11.093333a53.12 53.12 0 0 1 40.064 0c6.314667 2.56 12.032 6.4 16.768 11.093333 4.736 4.778667 8.448 10.368 10.837334 16.512 2.389333 6.144 3.456 12.672 3.114666 19.2V765.44a45.781333 45.781333 0 0 1-3.669333 18.517333 47.616 47.616 0 0 1-10.922667 15.786667 50.474667 50.474667 0 0 1-16.512 10.453333 52.48 52.48 0 0 1-19.456 3.584zM387.072 816.768v-114.688c0-4.010667-1.664-7.850667-4.650667-10.666667A16.341333 16.341333 0 0 0 371.2 686.933333a16.341333 16.341333 0 0 0-11.221333 4.437334 14.762667 14.762667 0 0 0-4.693334 10.709333V816.768h-31.658666v-114.688a13.653333 13.653333 0 0 0-4.309334-11.008 15.104 15.104 0 0 0-11.52-4.181333 15.701333 15.701333 0 0 0-11.52 4.181333 14.208 14.208 0 0 0-4.352 11.008V816.768h-31.829333v-114.688a13.653333 13.653333 0 0 0-4.48-11.093333 15.146667 15.146667 0 0 0-11.733333-3.968 15.701333 15.701333 0 0 0-11.52 4.181333 14.208 14.208 0 0 0-4.309334 11.008V816.768h-40.96l-28.544-310.997333a133.418667 133.418667 0 0 1 25.258667-80.896c17.066667-23.808 41.514667-41.941333 69.973333-51.84v-398.506667c-0.341333-6.570667 0.725333-13.098667 3.114667-19.242667 2.389333-6.144 6.058667-11.776 10.837333-16.512 4.736-4.693333 10.453333-8.533333 16.768-11.093333a53.162667 53.162667 0 0 1 40.064 0c6.314667 2.56 12.032 6.4 16.768 11.093333 4.778667 4.736 8.448 10.368 10.837334 16.512 2.432 6.144 3.456 12.672 3.157333 19.2v398.506667a154.496 154.496 0 0 1 69.333333 51.2c17.493333 22.997333 27.605333 50.346667 29.141334 78.677333l-25.472 313.898667h-41.216z"  horiz-adv-x="1024" />
      
      <glyph glyph-name="seat" unicode="&#58934;" d="M646.226537 137.167809H412.076748a50.430949 50.430949 0 0 0-49.236307 39.551176l-90.451449 410.956772a100.691236 100.691236 0 0 1-98.557947 79.187683 37.161892 37.161892 0 0 1-36.607237-44.201745l97.960626-509.30139a126.077373 126.077373 0 0 1 123.98675-102.269869h292.175246a52.308244 52.308244 0 0 1 50.089623 67.283931l-6.826524 22.911523a50.473615 50.473615 0 0 1-48.382992 35.967251v-0.085332z m-193.275973 516.255911a121.426804 121.426804 0 0 1 122.322784 120.232162 122.322785 122.322785 0 0 1-244.688235 0 121.426804 121.426804 0 0 1 122.365451-120.232162zM912.034333 274.764942a79.657007 79.657007 0 0 1-79.486344 74.921106h-206.374368l-36.607237 166.823191c-14.378367 61.353388-61.73738 83.240932-100.733901 83.240933a111.272348 111.272348 0 0 1-83.710256-36.607237 98.557947 98.557947 0 0 1-21.332889-82.430283l58.70811-225.787296a50.430949 50.430949 0 0 1 48.80965-37.716548h242.341618a50.473615 50.473615 0 0 0 49.065644-38.825858L855.587509-128h80.382325l-23.892836 402.764942z"  horiz-adv-x="1024" />
      
      <glyph glyph-name="to_reduce" unicode="&#58937;" d="M512-128C229.225412-128 0 101.225412 0 384S229.225412 896 512 896s512-229.225412 512-512-229.225412-512-512-512z m0 60.235294c249.494588 0 451.764706 202.270118 451.764706 451.764706 0 249.494588-202.270118 451.764706-451.764706 451.764706C262.505412 835.764706 60.235294 633.494588 60.235294 384c0-249.494588 202.270118-451.764706 451.764706-451.764706zM271.058824 353.882353a30.117647 30.117647 0 0 0 0 60.235294h481.882352a30.117647 30.117647 0 0 0 0-60.235294H271.058824z"  horiz-adv-x="1024" />
      
      <glyph glyph-name="increase" unicode="&#58938;" d="M512-128C229.225412-128 0 101.225412 0 384S229.225412 896 512 896s512-229.225412 512-512-229.225412-512-512-512z m0 60.235294c249.494588 0 451.764706 202.270118 451.764706 451.764706 0 249.494588-202.270118 451.764706-451.764706 451.764706C262.505412 835.764706 60.235294 633.494588 60.235294 384c0-249.494588 202.270118-451.764706 451.764706-451.764706zM271.058824 353.882353a30.117647 30.117647 0 0 0 0 60.235294h481.882352a30.117647 30.117647 0 0 0 0-60.235294H271.058824zM481.882353 624.941176a30.117647 30.117647 0 0 0 60.235294 0v-481.882352a30.117647 30.117647 0 0 0-60.235294 0V624.941176z"  horiz-adv-x="1024" />
      
      <glyph glyph-name="agent" unicode="&#58911;" d="M277.542444 498.335011a234.457556 234.457556 0 1 1 468.915112 0 234.457556 234.457556 0 1 1-468.915112 0ZM1001.302725 100.776547l-122.325681 214.069942v5.096904c25.484517 56.065937 40.775227 117.228778 40.775227 178.391618-5.096903 224.263749-183.488522 402.655367-407.752271 397.558464-224.263749 0-402.655367-178.391618-402.655367-397.558464 0-61.162841 15.29071-122.325681 40.775227-178.391618v-5.096904L27.794179 100.776547c-5.096903-5.096903-5.096903-10.193807-5.096904-15.29071-5.096903-30.58142 15.29071-61.162841 40.775227-66.259744l132.519488-30.58142 86.647358-96.841165c5.096903-5.096903 10.193807-10.193807 15.29071-10.193806 25.484517-15.29071 61.162841-5.096903 76.453551 20.387613l112.131874 193.682329h61.162841l112.131874-193.682329c5.096903-5.096903 5.096903-10.193807 10.193807-15.29071 20.387614-20.387614 56.065937-20.387614 76.453551 5.096903l91.74426 96.841165 132.519488 25.484517c5.096903 0 10.193807 5.096903 15.290711 5.096903 20.387614 20.387614 30.58142 56.065937 15.29071 81.550454z m-494.399628 50.969034c-188.585425 0-341.492527 152.907101-341.492527 346.58943S318.317671 844.924441 512 844.924441c188.585425 0 341.492527-152.907101 341.492527-346.58943 0-188.585425-152.907101-346.58943-346.58943-346.58943z"  horiz-adv-x="1024" />
      
      <glyph glyph-name="group" unicode="&#58917;" d="M767.838566 613.931841c56.284484-35.817399 127.919283-25.583857 168.853453 30.700628 15.350314 20.467085 20.467085 46.050942 20.467086 66.518027 0 66.518027-51.167713 122.802512-122.802512 122.802512-66.518027 0-122.802512-51.167713-122.802512-122.802512 0-15.350314 5.116771-30.700628 10.233543-46.050942 10.233543-20.467085 25.583857-40.934171 46.050942-51.167713z m-644.713186 0c30.700628-25.583857 71.634798-30.700628 112.568969-15.350314 46.050942 20.467085 76.75157 66.518027 71.634798 112.568969 0 66.518027-61.401256 117.68574-127.919283 117.68574-25.583857 0-56.284484-10.233543-76.751569-35.817399-15.350314-15.350314-30.700628-35.817399-35.8174-61.401256-5.116771-46.050942 15.350314-92.101884 56.284485-117.68574z m890.318209-148.386368c-20.467085 46.050942-66.518027 76.75157-112.568969 76.75157h-127.919283c-35.817399 0-71.634798-15.350314-92.101884-40.934171-25.583857 25.583857-66.518027 40.934171-102.335426 40.934171H445.481973c-35.817399 0-76.75157-15.350314-102.335426-40.934171C317.56269 521.829957 286.862062 537.180271 256.161434 537.180271H123.12538c-30.700628 0-61.401256-15.350314-81.868341-35.817399-15.350314-10.233543-20.467085-25.583857-30.700628-40.934171-5.116771-20.467085-10.233543-51.167713-5.116771-76.751569v-81.868341c0-40.934171 30.700628-51.167713 61.401255-66.518027l15.350314-209.787624c0-5.116771 5.116771-10.233543 10.233543-15.350314 10.233543-10.233543 35.817399-5.116771 51.167713-5.116772h122.802512c10.233543 0 30.700628-5.116771 40.93417 5.116772V25.50314l5.116772 122.802511 56.284484-10.233543 15.350314-240.488251c5.116771-15.350314 15.350314-25.583857 25.583857-25.583857h194.43731c15.350314 0 25.583857 10.233543 25.583856 25.583857l15.350314 240.488251 61.401256 15.350314 5.116771-102.335426v-25.583856c5.116771-10.233543 15.350314-15.350314 20.467086-15.350314h148.386368c15.350314 0 35.817399-5.116771 46.050942 5.116771 5.116771 5.116771 5.116771 10.233543 10.233542 15.350314l15.350314 209.787624 51.167713 25.583856c10.233543 5.116771 15.350314 15.350314 15.350314 20.467086V419.494531c0 15.350314 0 30.700628-5.116771 46.050942zM425.014888 613.931841c61.401256-40.934171 143.269597-30.700628 194.43731 20.467085s61.401256 133.036054 20.467085 194.43731C609.218655 874.887178 552.934171 900.471035 496.649686 895.354263 460.832287 890.237492 430.131659 874.887178 404.547802 849.303322c-61.401256-56.284484-61.401256-153.50314 0-214.904396l20.467086-20.467085z"  horiz-adv-x="1024" />
      
      <glyph glyph-name="refer-hover" unicode="&#58919;" d="M803.84 645.12c-5.12 0-15.36 0-20.48 5.12-10.24 10.24-10.24 25.6 0 35.84l153.6 158.72H481.28c-179.2-10.24-337.92-128-399.36-302.08-87.04-240.64 35.84-506.88 271.36-593.92 20.48-10.24 46.08-15.36 66.56-20.48 250.88-51.2 491.52 107.52 542.72 358.4 5.12 25.6 10.24 46.08 10.24 71.68V803.84l-148.48-148.48c-5.12-10.24-10.24-10.24-20.48-10.24z m-128-174.08h-81.92v-5.12c-5.12-20.48-10.24-40.96-20.48-56.32-10.24-15.36-20.48-30.72-35.84-40.96-15.36-10.24-30.72-20.48-46.08-25.6-20.48-5.12-35.84-10.24-56.32-10.24h-15.36l168.96-225.28c10.24-10.24 5.12-25.6-5.12-35.84-10.24-10.24-25.6-5.12-35.84 5.12l-194.56 261.12c-10.24 10.24-5.12 25.6 5.12 35.84 5.12 5.12 10.24 5.12 15.36 5.12 10.24 0 15.36-5.12 20.48-10.24h5.12c25.6 5.12 46.08 10.24 66.56 15.36 20.48 10.24 46.08 20.48 61.44 40.96 5.12 15.36 10.24 25.6 15.36 40.96v5.12H353.28c-15.36 5.12-20.48 15.36-20.48 25.6s10.24 15.36 15.36 15.36h179.2v5.12c0 15.36-5.12 25.6-15.36 35.84l-15.36 15.36c-5.12 5.12-15.36 10.24-20.48 10.24H368.64c-10.24 5.12-20.48 15.36-15.36 25.6 0 10.24 10.24 15.36 15.36 15.36h276.48c10.24 0 20.48-10.24 15.36-25.6 0-10.24-10.24-15.36-15.36-15.36H563.2l5.12-10.24c5.12-10.24 10.24-15.36 15.36-25.6 5.12-10.24 5.12-20.48 5.12-25.6v-5.12h87.04c10.24 0 20.48-10.24 15.36-25.6 0-10.24-5.12-15.36-15.36-15.36z"  horiz-adv-x="1024" />
      
      <glyph glyph-name="agent1" unicode="&#58920;" d="M512 737.514054c-127.725136 0-235.014249-107.289114-235.014249-235.01425s107.289114-235.014249 235.014249-235.014249c127.725136 0 235.014249 107.289114 235.014249 235.014249 0 127.725136-107.289114 235.014249-235.014249 235.01425z m0-408.720434c-91.962098 0-168.597179 76.635081-168.597179 168.597179C343.402821 589.352897 420.037902 665.987978 512 665.987978c91.962098 0 168.597179-76.635081 168.597179-168.597179-5.109005-91.962098-76.635081-168.597179-168.597179-168.597179zM542.654033 93.779371H481.345967l-112.398119-194.142206c-15.327016-25.545027-51.090054-35.763038-76.635081-20.436022-5.109005 5.109005-10.218011 5.109005-15.327016 10.218011l-86.853092 97.071103-132.834141 30.654032c-30.654033 5.109005-51.090054 35.763038-40.872044 66.417071 0 5.109005 5.109005 10.218011 5.109006 15.327016l122.61613 214.578228v5.109005c-20.436022 56.19906-35.763038 117.507125-35.763038 178.81519C108.388572 717.078032 287.203762 895.893222 512 895.893222c219.687233 5.109005 403.611428-173.706184 408.720434-398.502423 0-61.308065-15.327016-122.61613-40.872044-178.81519v-5.109005l122.61613-214.578228c15.327016-25.545027 5.109005-61.308065-20.436021-76.635081-5.109005-5.109005-10.218011-5.109005-15.327017-5.109006l-132.834141-25.545027-91.962097-97.071103c-20.436022-20.436022-56.19906-25.545027-76.635081-5.109005-5.109005 5.109005-5.109005 10.218011-10.218011 15.327016-5.109005-5.109005-112.398119 189.033201-112.398119 189.033201z m-464.919494-20.436022l143.052152-40.872043 97.071103-97.071103h10.218011l97.071103 168.597179-15.327016 5.109005C322.966799 129.542409 241.222713 180.632463 185.023653 257.267544l-5.109005 10.218011-107.289114-178.81519c0-10.218011 5.109005-10.218011 5.109005-15.327016 0 5.109005 0 0 0 0z m756.132802 183.924195c-56.19906-71.526076-137.943146-127.725136-224.796238-148.161157l-10.218011-5.109005 97.071103-163.488174h10.218011c15.327016 15.327016 61.308065 61.308065 102.180108 97.071103l137.943147 40.872044c5.109005 0 5.109005 5.109005 5.109005 5.109005l-102.180108 178.81519-15.327017-5.109006zM512 844.803168C317.857794 844.803168 164.587631 691.533005 164.587631 497.390799c0-189.033201 153.270163-347.412369 342.303364-347.412369s342.303363 153.270163 342.303363 347.412369C854.303363 691.533005 701.033201 844.803168 512 844.803168z"  horiz-adv-x="1024" />
      
      <glyph glyph-name="refer" unicode="&#58922;" d="M563.2 61.44c-10.24 0-15.36 5.12-20.48 10.24L348.16 332.8c-10.24 10.24-5.12 30.72 5.12 40.96 10.24 10.24 30.72 5.12 35.84-5.12h5.12c20.48 0 46.08 5.12 66.56 15.36 20.48 10.24 40.96 20.48 56.32 40.96 5.12 15.36 10.24 25.6 15.36 40.96l-5.12 5.12H348.16c-10.24 0-20.48 10.24-20.48 20.48s10.24 20.48 20.48 20.48h179.2v5.12c0 10.24-5.12 20.48-15.36 30.72l-5.12 10.24c-5.12 5.12-10.24 5.12-15.36 10.24-5.12 5.12-15.36 10.24-20.48 15.36H363.52c-10.24 0-20.48 10.24-20.48 20.48s10.24 20.48 20.48 20.48h276.48c10.24 0 20.48-5.12 25.6-10.24 5.12-10.24 0-25.6-10.24-30.72H558.08v-5.12l15.36-30.72c5.12-10.24 5.12-20.48 5.12-25.6H665.6c10.24 0 20.48-5.12 25.6-10.24 5.12-10.24 0-25.6-10.24-30.72H583.68v-5.12c0-20.48-10.24-40.96-20.48-56.32-10.24-15.36-20.48-30.72-35.84-40.96-15.36-10.24-30.72-20.48-46.08-25.6-20.48-5.12-35.84-10.24-56.32-10.24v-5.12l163.84-220.16c10.24-15.36 5.12-30.72-5.12-40.96-10.24-10.24-15.36-10.24-20.48-15.36zM512-76.8c-117.76 0-235.52 46.08-317.44 128A428.032 428.032 0 0 0 51.2 368.64C46.08 486.4 87.04 604.16 168.96 696.32 245.76 783.36 358.4 834.56 476.16 844.8h465.92l10.24-5.12 5.12-5.12 5.12-5.12c5.12-10.24 0-25.6-5.12-30.72l-153.6-158.72c-10.24-10.24-25.6-10.24-40.96 0-10.24 10.24-10.24 25.6 0 40.96L870.4 788.48h-358.4c-81.92 0-158.72-25.6-225.28-66.56-66.56-46.08-117.76-107.52-148.48-184.32-30.72-71.68-35.84-153.6-20.48-235.52 15.36-76.8 56.32-148.48 112.64-204.8s128-97.28 204.8-112.64c76.8-15.36 158.72-5.12 230.4 20.48 71.68 30.72 138.24 81.92 179.2 148.48 46.08 66.56 66.56 143.36 66.56 225.28V593.92H972.8l-5.12-225.28c-5.12-117.76-56.32-230.4-138.24-312.32-87.04-87.04-199.68-133.12-317.44-133.12z"  horiz-adv-x="1024" />
      
      <glyph glyph-name="wallet" unicode="&#58923;" d="M977.92 721.92c-25.6 25.6-66.56 46.08-102.4 46.08H148.48c-40.96 0-76.8-20.48-107.52-46.08-25.6-25.6-40.96-61.44-40.96-102.4v-481.28c0-40.96 15.36-76.8 40.96-102.4 30.72-25.6 71.68-40.96 107.52-40.96h737.28c40.96 0 76.8 15.36 102.4 40.96 20.48 25.6 40.96 71.68 40.96 102.4V619.52c-5.12 46.08-25.6 76.8-51.2 102.4zM230.4 307.2c40.96 0 71.68 30.72 71.68 71.68s-30.72 76.8-71.68 76.8C184.32 455.68 153.6 419.84 153.6 384s30.72-76.8 76.8-76.8zM384 512H0v-51.2h384c40.96 0 76.8-40.96 76.8-76.8s-40.96-76.8-76.8-76.8H0v-51.2h384c71.68 0 128 56.32 128 128S455.68 512 384 512z"  horiz-adv-x="1029" />
      
      <glyph glyph-name="support" unicode="&#58924;" d="M1042.139 463.539C1032.951 703.926 823.224 896 565.905 896S98.806 703.874 89.645 463.591C35.202 441.41 0 390.878 0 334.964v-112.496C0 144.991 66.715 82.24 148.892 82.24s148.944 62.817 148.944 140.348V334.964c-0.17 77.019-66.098 139.547-147.868 140.112 15.278 203.952 195.684 364.88 415.937 364.88s400.66-160.889 415.937-364.775c-81.77-0.447-147.868-63.106-147.92-140.112v-112.443a135.99 135.99 0 0 1 46.856-102.035 451.69 451.69 0 0 0-166.69-98.636 105.933 105.933 0 0 1-89.015 46.45h-88.595c-58.013 0-104.581-43.799-104.581-98.176s46.686-98.176 104.463-98.176h88.845c56.7-0.224 103.098 42.276 104.515 95.63A511.173 511.173 0 0 1 932.938 90.6a156.701 156.701 0 0 1 135.819 17.483 137.959 137.959 0 0 1 63 114.543V335.082c-0.367 56.242-35.608 106.787-89.618 128.457z m-830.43-68.645a83.634 83.634 0 0 0 26.54-59.93v-112.39a83.41 83.41 0 0 0-26.54-59.878 90.104 90.104 0 0 0-62.817-24.334 90.314 90.314 0 0 0-62.817 24.334 83.41 83.41 0 0 0-26.487 59.877V334.964a83.253 83.253 0 0 0 26.487 59.93 90.314 90.314 0 0 0 62.817 24.334 90.564 90.564 0 0 0 62.817-24.334z m445.075-454.761a45.085 45.085 0 0 0-31.684-12.05h-88.792c-24.938 0-44.928 18.796-44.928 42.106a41.646 41.646 0 0 0 13.362 30.044 45.19 45.19 0 0 0 31.631 12.049h88.78a45.19 45.19 0 0 0 31.578-12.049 40.544 40.544 0 0 0 0-60.1z m415.425 282.44a83.227 83.227 0 0 0-26.487-59.877 93.189 93.189 0 0 0-125.634 0 83.437 83.437 0 0 0-26.54 59.877V334.964a84.001 84.001 0 0 0 26.527 59.93 93.189 93.189 0 0 0 125.634 0 83.41 83.41 0 0 0 26.487-59.93z"  horiz-adv-x="1131" />
      
      <glyph glyph-name="wallet1" unicode="&#58925;" d="M148.48-20.48C66.56-20.48 0 46.08 0 128V604.16c0 81.92 66.56 143.36 148.48 143.36h732.16c81.92 0 148.48-66.56 148.48-143.36V128c0-81.92-66.56-143.36-148.48-143.36H148.48zM51.2 128c0-51.2 46.08-97.28 97.28-97.28h732.16c51.2 0 97.28 40.96 97.28 97.28V604.16c0 51.2-46.08 97.28-97.28 97.28H148.48C92.16 701.44 51.2 655.36 51.2 604.16v-112.64h302.08c112.64 0 153.6-56.32 153.6-122.88 0-81.92-71.68-122.88-153.6-122.88H51.2V128z m5.12 153.6h296.96c10.24 0 25.6-5.12 35.84 0 46.08 10.24 71.68 56.32 61.44 102.4-5.12 30.72-30.72 56.32-61.44 61.44-10.24 5.12-25.6 0-35.84 0H56.32V281.6zM225.28 296.96c40.96 0 71.68 30.72 71.68 71.68 0 40.96-30.72 71.68-71.68 71.68-40.96 0-71.68-30.72-71.68-71.68 0-35.84 30.72-71.68 71.68-71.68z"  horiz-adv-x="1029" />
      
      <glyph glyph-name="support-hover" unicode="&#58929;" d="M754.483 337.254V235.52c0.051-35.174 15.411-68.608 42.394-92.314a408.678 408.678 0 0 0-150.784-89.241A95.846 95.846 0 0 1 565.555 96h-80.179c-52.48 0-94.618-39.629-94.618-88.832 0-49.203 42.24-88.832 94.516-88.832h80.384c51.302-0.205 93.286 38.246 94.566 86.528a462.438 462.438 0 0 1 183.86 111.206c41.266-13.824 86.886-7.987 122.88 15.821A124.826 124.826 0 0 1 1024 235.52V337.306c-0.358 50.892-32.256 96.614-81.1 116.224C934.553 671.027 744.805 844.8 512 844.8c-232.858 0-422.605-173.824-430.9-391.22C31.847 433.51 0 387.79 0 337.255V235.47c0-70.144 60.365-126.925 134.707-126.925 74.445 0 134.759 56.832 134.759 126.976V337.254c-0.154 69.632-59.802 126.208-133.786 126.72C149.504 648.5 312.73 794.061 512 794.061c199.322 0 362.496-145.562 376.32-330.035-73.984-0.41-133.786-57.088-133.837-126.772zM53.913 235.52V337.203c0.154 20.429 8.807 39.936 23.962 54.221a81.715 81.715 0 0 0 56.832 22.016c21.248 0.154 41.677-7.731 56.832-22.016 15.155-14.336 23.808-33.792 24.013-54.22V235.52c-0.205-20.378-8.858-39.936-24.013-54.17-15.155-14.336-35.584-22.22-56.832-22.016a81.715 81.715 0 0 0-56.832 22.016 75.469 75.469 0 0 0-23.961 54.17z m754.535 101.683V235.52c0.205-20.378 8.858-39.936 24.013-54.17 15.155-14.336 35.584-22.22 56.832-22.016 21.197-0.204 41.677 7.68 56.832 22.016 15.155 14.285 23.808 33.792 23.961 54.17V337.203a75.469 75.469 0 0 1-23.961 54.221 81.715 81.715 0 0 1-56.832 22.016 81.715 81.715 0 0 1-56.832-22.016c-15.155-14.336-23.808-33.792-24.064-54.22zM565.606-30.925h-80.384c-22.528 0-40.652 16.999-40.652 38.093a37.683 37.683 0 0 0 12.083 27.187c7.629 7.168 17.92 11.06 28.62 10.906h80.333a40.909 40.909 0 0 0 28.57-10.906c7.629-7.168 11.98-16.896 12.083-27.136a37.683 37.683 0 0 0-12.032-27.238 40.806 40.806 0 0 0-28.672-10.906zM128 435.2l-76.8-25.6-25.6-51.2L51.2 256v-102.4h153.6l25.6 51.2V409.6l-51.2 25.6H128z m844.8-25.6l-51.2 25.6H819.2L793.6 384v-204.8l76.8-51.2 102.4 25.6 25.6 128-25.6 128z m-563.2-384l76.8 51.2h76.8l25.6-25.6h25.6L640 0l-51.2-51.2h-128l-51.2 76.8z"  horiz-adv-x="1024" />
      
      <glyph glyph-name="group2" unicode="&#58930;" d="M839.68 588.8c30.72 0 61.44 15.36 87.04 35.84 20.48 20.48 35.84 56.32 35.84 87.04 0 30.72-15.36 61.44-35.84 87.04-51.2 46.08-128 46.08-174.08-5.12-35.84-35.84-46.08-87.04-25.6-133.12 15.36-40.96 61.44-71.68 112.64-71.68zM768 737.28c10.24 25.6 35.84 46.08 66.56 46.08 20.48 0 35.84-10.24 51.2-20.48 25.6-25.6 30.72-61.44 10.24-92.16-15.36-25.6-46.08-35.84-76.8-30.72h-10.24c-35.84 15.36-56.32 61.44-40.96 97.28zM184.32 588.8c15.36 0 35.84 0 46.08 10.24C276.48 614.4 307.2 660.48 307.2 711.68 307.2 742.4 296.96 773.12 271.36 793.6c-46.08 51.2-122.88 51.2-174.08 0-30.72-30.72-40.96-87.04-25.6-133.12 20.48-40.96 66.56-71.68 112.64-71.68zM117.76 737.28c10.24 25.6 35.84 46.08 66.56 46.08 15.36 0 30.72-5.12 40.96-10.24 35.84-20.48 40.96-66.56 20.48-102.4-15.36-25.6-46.08-40.96-71.68-30.72h-15.36c-35.84 15.36-56.32 61.44-40.96 97.28zM1013.76 465.92c-20.48 46.08-61.44 76.8-112.64 76.8h-128c-35.84 0-71.68-15.36-92.16-40.96-30.72 20.48-66.56 35.84-107.52 35.84H445.44c-35.84 0-71.68-15.36-102.4-40.96-25.6 25.6-56.32 40.96-92.16 40.96H122.88c-15.36 0-30.72-5.12-46.08-10.24C30.72 512 0 465.92 0 414.72v-128c0-10.24 5.12-15.36 15.36-20.48l51.2-25.6 15.36-215.04c0-10.24 10.24-20.48 25.6-20.48h179.2v-5.12c10.24 0 20.48 10.24 20.48 25.6l5.12 122.88 56.32-10.24 15.36-240.64c5.12-15.36 15.36-25.6 25.6-25.6h194.56c15.36 0 25.6 10.24 25.6 20.48l15.36 240.64 61.44 10.24 5.12-117.76v-5.12c0-15.36 10.24-25.6 25.6-25.6H921.6c15.36 0 25.6 10.24 25.6 20.48l15.36 215.04 51.2 25.6c10.24 5.12 15.36 10.24 15.36 20.48V419.84l-15.36 46.08zM112.64 256c0 10.24-5.12 15.36-15.36 20.48l-51.2 25.6V414.72c5.12 10.24 5.12 20.48 10.24 30.72 10.24 25.6 35.84 46.08 66.56 46.08h128c25.6 0 46.08-10.24 56.32-30.72-10.24-25.6-15.36-51.2-15.36-76.8v-107.52s-5.12 0-5.12-10.24l-15.36-215.04H128l-15.36 204.8z m568.32-61.44l-61.44-10.24c-10.24 0-20.48-10.24-20.48-20.48l-10.24-240.64h-153.6l-15.36 235.52c0 10.24-10.24 20.48-20.48 20.48l-61.44 10.24V389.12c0 25.6 10.24 56.32 30.72 76.8 20.48 20.48 46.08 30.72 76.8 30.72h128c25.6 0 56.32-10.24 76.8-30.72 20.48-20.48 30.72-46.08 30.72-76.8v-194.56z m291.84 107.52l-51.2-25.6c-5.12-5.12-10.24-10.24-15.36-20.48l-15.36-204.8h-133.12l-15.36 209.92c0 15.36-5.12 15.36-5.12 15.36l-10.24 5.12v102.4c0 25.6-5.12 51.2-20.48 71.68 15.36 20.48 35.84 35.84 61.44 35.84h128c40.96 0 71.68-30.72 71.68-71.68v-117.76zM512 588.8c40.96 0 81.92 15.36 107.52 46.08 30.72 25.6 46.08 66.56 46.08 107.52s-15.36 76.8-46.08 107.52C558.08 911.36 460.8 911.36 399.36 849.92c-40.96-40.96-51.2-107.52-30.72-163.84C394.24 624.64 450.56 588.8 512 588.8zM414.72 783.36C430.08 824.32 471.04 849.92 512 849.92c25.6 0 56.32-10.24 76.8-30.72 20.48-20.48 30.72-46.08 30.72-76.8 0-25.6-10.24-56.32-30.72-76.8-40.96-40.96-107.52-40.96-148.48 0-30.72 35.84-40.96 76.8-25.6 117.76zM512 588.8z"  horiz-adv-x="1029" />
      
      <glyph glyph-name="punctuality" unicode="&#58908;" d="M512 896c282.368 0 512-229.632 512-512s-229.632-512-512-512-512 229.632-512 512 229.632 512 512 512zM268.458667 119.210667a42.581333 42.581333 0 0 1 60.330666 0l213.333334 213.333333A42.496 42.496 0 0 1 554.666667 362.666667V640a42.666667 42.666667 0 1 1-85.333334 0v-259.669333L268.458667 179.541333a42.666667 42.666667 0 0 1 0-60.330666z"  horiz-adv-x="1024" />
      
      <glyph glyph-name="baggage" unicode="&#58906;" d="M333.824 643.925333v113.493334c0 17.834667 14.506667 32.256 32.256 32.256h291.84c17.834667 0 32.256-14.506667 32.256-32.256v-113.493334h91.306667v-665.6H242.517333v665.6h91.306667z m64.426667 0.256h227.498666V725.333333H398.250667v-81.066666zM914.517333 644.010667c60.330667 0 109.482667-49.152 109.482667-109.482667v-446.72c0-60.330667-49.152-109.482667-109.482667-109.482667h-68.608v665.6h68.608zM109.482667 644.010667h68.608v-665.6h-68.608A109.568 109.568 0 0 0 0 87.722667V534.528c0 60.330667 49.152 109.482667 109.482667 109.482667z"  horiz-adv-x="1024" />
      
      <glyph glyph-name="rexiao1" unicode="&#58902;" d="M748.8 467.2c0 44.8-12.8 108.8-19.2 121.6 57.6-32 172.8-108.8 172.8-339.2C902.4 44.8 729.6-128 512-128c-217.6 0-390.4 172.8-390.4 377.6 0 121.6 51.2 224 121.6 288C480 768 473.6 889.6 480 896 563.2 832 620.8 748.8 614.4 640c0-89.6-70.4-256 51.2-275.2 57.6-6.4 83.2 64 83.2 102.4z"  horiz-adv-x="1024" />
      
      <glyph glyph-name="yidaoqi1" unicode="&#58903;" d="M512 896C226.133333 896 0 669.866667 0 384s226.133333-512 512-512 512 230.4 512 512-230.4 512-512 512z m324.266667-588.8H482.133333c-4.266667 0-17.066667 4.266667-21.333333 17.066667-4.266667 4.266667-4.266667 8.533333-4.266667 17.066666V691.2c0 17.066667 21.333333 42.666667 42.666667 42.666667s38.4-21.333333 38.4-42.666667V384l302.933333 4.266667c21.333333 0 46.933333-21.333333 46.933334-46.933334-4.266667-12.8-29.866667-34.133333-51.2-34.133333z"  horiz-adv-x="1024" />
      
      <glyph glyph-name="jiantou" unicode="&#58905;" d="M53.17312 322.368a52.864 52.864 0 0 0-37.568 15.68 53.952 53.952 0 0 0 0 75.904 52.864 52.864 0 0 0 37.568 15.68h896.384c14.08 0 27.584-5.632 37.568-15.68a53.888 53.888 0 0 0 0-75.904 52.864 52.864 0 0 0-37.568-15.68H53.17312zM982.83712 417.856a53.888 53.888 0 0 0-33.28-92.48 52.8 52.8 0 0 0-38.016 12.864L473.33312 738.56A53.888 53.888 0 0 0 506.35712 832a52.864 52.864 0 0 0 38.272-13.824l438.208-400.192v-0.064zM552.37312-50.816a52.8 52.8 0 0 0-74.368 4.672 53.952 53.952 0 0 0 3.328 75.136l428.8 389.312a53.056 53.056 0 0 0 58.944 9.28 53.12 53.12 0 0 0 27.52-30.848 54.144 54.144 0 0 0-15.36-58.24L552.37312-50.752z"  horiz-adv-x="1024" />
      
      <glyph glyph-name="location" unicode="&#58899;" d="M503.808 674.133333a110.865067 110.865067 0 0 0 111.138133-111.069866c0-29.627733-11.605333-57.617067-32.5632-78.506667-21.026133-21.162667-48.810667-32.768-78.574933-32.768-29.696 0-57.617067 11.605333-78.506667 32.5632a110.250667 110.250667 0 0 0-32.5632 78.506667c0 29.696 11.605333 57.617067 32.494934 78.506666 21.026133 21.162667 49.015467 32.768 78.506666 32.768m0 61.371734a172.578133 172.578133 0 0 1 0-345.019734 172.509867 172.509867 0 1 1 0 345.019734zM503.808 834.013867a268.970667 268.970667 0 0 0 191.419733-79.394134c24.917333-24.917333 44.373333-53.930667 58.026667-86.2208 14.267733-33.450667 21.435733-68.949333 21.572267-105.608533 0-54.340267-15.018667-113.4592-44.987734-175.7184-25.258667-52.224-60.6208-106.496-105.472-161.245867a1232.418133 1232.418133 0 0 0-120.490666-126.839466 1229.755733 1229.755733 0 0 0-118.1696 124.928C340.650667 278.869333 304.878933 333.482667 279.210667 386.048 248.695467 448.853333 233.0624 508.450133 232.6528 563.268267a264.738133 264.738133 0 0 0 20.548267 104.516266 273.066667 273.066667 0 0 0 144.042666 144.5888A272.384 272.384 0 0 0 503.808 834.013867m0 61.303466C320.375467 895.317333 170.257067 746.496 171.485867 562.9952 173.397333 282.146133 503.808 17.954133 503.808 17.954133s333.141333 264.192 332.322133 545.041067A332.5952 332.5952 0 0 1 503.808 895.317333zM504.081067-85.879467c-76.117333 0-148.138667 13.038933-202.888534 36.590934-62.805333 27.0336-97.416533 66.423467-97.416533 110.455466 0 25.326933 11.605333 62.327467 66.628267 94.890667l4.3008 2.4576c5.461333 3.072 11.264 6.075733 17.2032 8.874667a30.583467 30.583467 0 1 0 26.2144-55.432534 242.551467 242.551467 0 0 1-13.243734-6.826666l-3.140266-1.774934c-23.210667-13.858133-36.522667-29.0816-36.522667-42.052266 0-17.408 23.210667-38.024533 60.484267-54.135467 47.104-20.48 110.592-31.607467 178.5856-31.607467 67.925333 0 131.2768 11.195733 178.517333 31.607467 37.2736 16.110933 60.484267 36.864 60.484267 54.135467 0 12.970667-13.448533 28.398933-36.727467 42.1888a249.856 249.856 0 0 1-16.1792 8.6016 30.583467 30.583467 0 0 0-14.5408 40.7552 30.583467 30.583467 0 0 0 40.7552 14.609066c7.441067-3.549867 14.5408-7.304533 21.162667-11.127466 55.296-32.631467 66.9696-69.768533 66.9696-95.0272 0-44.100267-34.542933-83.3536-97.416534-110.523734-55.0912-23.620267-126.976-36.6592-203.229866-36.6592z"  horiz-adv-x="1024" />
      
      <glyph glyph-name="lounge" unicode="&#58992;" d="M969.649231-13.312H125.636923c-68.686769 0-124.455385 55.926154-124.455385 124.455385v377.304615a124.455385 124.455385 0 0 0 248.91077 0v-252.849231h595.259077v252.849231c0 68.686769 55.926154 124.455385 124.455384 124.455385 68.529231 0 124.455385-55.926154 124.455385-124.455385v-377.304615c0-68.686769-55.926154-124.455385-124.455385-124.455385zM125.636923 556.347077a67.899077 67.899077 0 0 1-67.820308-67.820308v-377.383384c0-37.415385 30.404923-67.820308 67.741539-67.820308h844.248615c37.415385 0 67.741538 30.404923 67.741539 67.741538V488.605538a67.899077 67.899077 0 0 1-135.561846 0v-281.206153a28.356923 28.356923 0 0 0-28.356924-28.356923H221.735385a28.356923 28.356923 0 0 0-28.356923 28.356923v281.206153a67.899077 67.899077 0 0 1-67.741539 67.741539zM836.529231 181.405538H258.599385a65.378462 65.378462 0 0 0-65.220923 65.220924v8.428307c0 94.601846 77.036308 171.716923 171.716923 171.716923H730.190769c94.680615 0 171.716923-77.115077 171.716923-171.716923v-8.428307a65.378462 65.378462 0 0 0-65.378461-65.220924zM365.016615 370.057846c-63.488 0-115.003077-51.515077-115.003077-115.003077v-8.428307c0-4.726154 3.780923-8.664615 8.585847-8.664616h578.087384c4.726154 0 8.664615 3.938462 8.664616 8.664616v8.428307c0 63.488-51.593846 115.003077-115.160616 115.003077H365.016615z m-244.972307 198.498462a28.356923 28.356923 0 0 0-28.356923 28.278154V739.564308c0 43.559385 23.158154 83.810462 65.220923 113.58523C196.135385 880.718769 247.414154 896 301.449846 896h492.307692c53.956923 0 105.314462-15.281231 144.46277-42.850462 42.062769-29.617231 65.220923-70.025846 65.220923-113.58523v-137.846154a28.356923 28.356923 0 0 0-56.635077 0v137.846154c0 54.035692-70.104615 99.800615-153.048616 99.800615h-492.307692c-83.022769 0-153.127385-45.686154-153.127384-99.800615v-142.729846a28.356923 28.356923 0 0 0-28.356924-28.356924z m111.616-671.586462a28.356923 28.356923 0 0 0-28.356923 28.356923v82.707693a28.356923 28.356923 0 0 0 56.635077 0v-82.707693a28.356923 28.356923 0 0 0-28.356924-28.356923z m631.886769 0a28.356923 28.356923 0 0 0-28.356923 28.356923v82.707693a28.356923 28.356923 0 0 0 56.635077 0v-82.707693a28.356923 28.356923 0 0 0-28.356923-28.356923z"  horiz-adv-x="1102" />
      
      <glyph glyph-name="Airports" unicode="&#58993;" d="M1012.798006 730.681809c18.285388 55.002446 14.62831 102.763879-14.62831 135.750719l-3.657078 3.657078c-32.913698 29.402904-80.455706 33.059981-135.311869 14.62831-47.542008-14.62831-91.426939-43.958072-131.581651-80.675131l-95.084016-95.376583L201.146214 811.430082c-18.285388 3.657078-40.227853 0-54.856163-14.701452L58.520189 708.666202a58.440099 58.440099 0 0 1-14.62831-51.41851c3.657078-18.285388 14.62831-32.98684 29.256621-40.300995l303.537436-165.153622L248.688222 323.28337l-109.712326 29.329762c-7.314155 3.657078-14.62831 3.657078-18.285388 3.657077-14.62831 0-29.25662-7.314155-40.227853-18.285387l-62.170319-66.046821c-14.62831-11.044374-18.285388-29.402904-18.285387-44.031214 0-18.358529 10.971233-33.059981 21.942465-40.374136l168.225567-124.779486 124.340637-168.8107c10.971233-14.62831 25.599543-22.015607 40.227853-22.015607h3.583936c14.62831 0 29.25662 7.314155 40.227853 18.35853l65.827396 66.04682c14.62831 14.62831 21.942465 36.717059 14.62831 55.075588l-29.25662 110.078035 127.997714 128.436563 164.495349-304.561418c10.971233-18.358529 25.599543-25.745826 36.570775-29.402904 7.314155-3.657078 10.971233-3.657078 14.62831-3.657077 14.62831 0 25.599543 3.657078 36.570776 10.971232l87.769861 66.119962c18.285388 14.62831 25.599543 36.643917 21.942465 58.659524l-102.398171 455.013589 95.084016 95.449725c36.570776 36.643917 65.827396 80.675131 80.455706 132.093641h-0.073141z m-257.01941-206.624881l111.248299-486.757023-66.705095-47.907716-207.722005 376.166997-230.103319-228.640488 40.812985-143.796289-44.543205-47.980858-118.708737 158.570883L73.1485 229.077052l48.273423 47.907716 144.673988-40.520419 229.957037 228.640488-382.091463 206.478599 66.778236 66.412528 471.10473-110.663166 126.169176 121.707541a310.26646 310.26646 0 0 0 103.861003 66.339386c40.886127 14.774593 55.66072 3.657078 63.048017 0 3.730219-7.314155 11.190657-22.088748 0-62.682309a226.007393 226.007393 0 0 0-66.705095-103.202728l-122.438956-125.364619v-0.073141z"  horiz-adv-x="1024" />
      
      <glyph glyph-name="Personalinformation" unicode="&#58995;" d="M651.044571 395.702857c76.8-16.384 153.526857-45.933714 229.741715-88.356571a252.489143 252.489143 0 0 0 129.828571-220.672v-70.217143c0-46.518857-37.741714-84.187429-84.260571-84.187429H84.187429A84.187429 84.187429 0 0 0 0 16.457143v70.217143C0 178.322286 49.664 262.729143 129.755429 307.2c76.288 42.496 152.868571 72.045714 229.741714 88.502857a271.36 271.36 0 1 0 291.547428 0z m-145.773714 32.475429a196.534857 196.534857 0 1 1 0 392.996571 196.534857 196.534857 0 0 1 0-392.996571z m-430.445714-341.577143v-70.144c0-5.12 4.242286-9.362286 9.362286-9.362286h842.166857c5.12 0 9.362286 4.169143 9.362285 9.362286v70.217143c0 64.438857-34.889143 123.830857-91.282285 155.209143-113.737143 63.268571-226.596571 94.646857-339.163429 94.646857-112.493714 0-225.426286-31.378286-339.163428-94.646857a177.664 177.664 0 0 1-91.282286-155.209143z"  horiz-adv-x="1024" />
      
      <glyph glyph-name="time1" unicode="&#58996;" d="M512-128A512 512 0 1 0 512 896a512 512 0 0 0 0-1024z m0 78.774857A433.225143 433.225143 0 1 1 512 817.225143a433.225143 433.225143 0 0 1 0-866.450286z m0 393.874286h236.251429a39.424 39.424 0 0 0 0-78.774857H472.649143a39.350857 39.350857 0 0 0-39.350857 39.350857V659.748571A39.350857 39.350857 0 0 0 512 659.748571V344.649143z"  horiz-adv-x="1024" />
      
      <glyph glyph-name="ordernumber" unicode="&#58994;" d="M735.914667 387.003733c14.336 0 23.9616-9.557333 23.9616-28.740266 0-14.404267-9.557333-24.029867-23.9616-28.808534v57.5488z m0-494.250666h148.753066c14.336 0 28.740267 14.404267 28.740267 28.808533v647.850667c0 9.557333-4.778667 19.114667-9.557333 23.9616L735.914667 780.4928v-86.357333l86.357333-95.982934H735.914667v-57.5488h119.944533v-590.2336H735.914667v-57.617066z m0 239.957333v57.617067c14.336 0 23.9616-14.404267 23.9616-28.808534s-9.557333-28.808533-23.9616-28.808533zM505.582933 387.003733H735.914667v-57.5488H505.582933v57.5488z m230.331734 307.2L649.489067 794.8288v-196.744533H735.914667v-57.5488H620.7488a30.993067 30.993067 0 0 0-28.808533 28.808533V838.109867H505.582933V895.658667h115.165867c9.557333 0 14.336-4.778667 19.114667-9.557334L735.914667 780.4928v-86.357333z m0-503.876266v-57.617067H505.582933v57.617067H735.914667z m0-239.957334v-57.617066H505.582933v57.617066H735.914667zM280.029867 329.454933a30.993067 30.993067 0 0 0-28.808534 28.808534c0 19.114667 14.404267 28.740267 28.808534 28.740266h225.553066v-57.5488H280.029867zM131.208533 895.658667c-14.336 0-28.672-14.336-28.672-28.740267v-945.3568c0-14.336 14.336-28.808533 28.672-28.808533h374.3744v57.617066H160.085333V838.109867h345.429334V895.658667H131.345067z m374.3744-705.3312v-57.617067H280.029867a30.993067 30.993067 0 0 0-28.808534 28.808533c0 14.336 14.404267 28.808533 28.808534 28.808534h225.553066z"  horiz-adv-x="1024" />
      
      <glyph glyph-name="bianzu" unicode="&#58895;" d="M35.297882 589.161412h903.649883v-58.789647H35.297882v58.789647z m226.002824 120.95247a29.394824 29.394824 0 0 0-29.394824 29.394824V866.364235a29.394824 29.394824 0 0 0 58.789647 0v-126.855529c0-16.263529-13.191529-29.394824-29.394823-29.394824z m450.800941 0a29.394824 29.394824 0 0 0-29.394823 29.394824V866.364235a29.394824 29.394824 0 0 0 58.849882 0v-126.855529c0-16.263529-13.251765-29.394824-29.455059-29.394824zM307.2 332.679529H215.401412a29.394824 29.394824 0 0 0 0 58.849883H307.2a29.394824 29.394824 0 0 0 0-58.849883z m225.882353 0H441.283765a29.394824 29.394824 0 0 0 0 58.849883H533.082353a29.394824 29.394824 0 0 0 0-58.849883z m227.087059 0h-91.798588a29.394824 29.394824 0 0 0 0 58.849883h91.738352a29.394824 29.394824 0 0 0 0-58.849883zM307.2 124.446118H215.401412a29.394824 29.394824 0 0 0 0 58.849882H307.2a29.394824 29.394824 0 0 0 0-58.849882z m225.882353 0H441.283765a29.394824 29.394824 0 0 0 0 58.849882H533.082353a29.394824 29.394824 0 0 0 0-58.849882z m227.087059 0h-91.798588a29.394824 29.394824 0 0 0 0 58.849882h91.738352a29.394824 29.394824 0 0 0 0-58.849882zM336.534588 828.958118h302.381177v-58.849883h-302.381177v58.849883zM916.178824 828.958118h-126.795295v-58.849883h126.735059c0.722824 0 1.385412-0.843294 1.385412-1.385411v-789.202824c0-0.722824-0.783059-1.385412-1.385412-1.385412H60.235294c-0.722824 0-1.385412 0.783059-1.385412 1.385412V768.722824c0 0.662588 0.783059 1.385412 1.385412 1.385411h125.650824v58.849883H60.235294c-33.129412 0-60.235294-27.166118-60.235294-60.235294v-789.202824c0-33.129412 27.166118-60.235294 60.235294-60.235294h855.883294c33.129412 0 60.235294 27.166118 60.235294 60.235294V768.722824c0.120471 33.069176-27.105882 60.235294-60.114823 60.235294z"  horiz-adv-x="1024" />
      
      <glyph glyph-name="Used" unicode="&#58991;" d="M768.073557 827.562667A512.477867 512.477867 0 0 1 512.619691 896C335.297024 896 163.384491 804.386133 68.527957 640-72.698709 395.3152 11.388757 81.646933 256.090624-59.562667 333.675691-104.8064 422.063957-128 511.527424-128c177.322667 0 349.2352 91.613867 444.074667 256 141.2096 244.6848 57.1392 557.806933-187.5456 699.562667zM933.551957 140.919467C799.339691-90.282667 502.908757-170.0352 271.177557-35.84 39.395157 98.3552-39.828309 394.786133 94.383957 626.517333 228.596224 858.282667 525.010091 937.5232 756.741291 803.310933a484.642133 484.642133 0 0 0 238.216533-479.112533 488.618667 488.618667 0 0 0-61.44-183.2448zM746.518357 790.357333a464.298667 464.298667 0 0 1-233.898666 63.061334c-162.218667 0-320.136533-84.0704-406.903467-234.4448-129.365333-224.187733-52.821333-511.453867 171.383467-640.802134a464.298667 464.298667 0 0 1 233.898666-63.061333c162.218667 0 320.136533 84.087467 406.903467 234.4448C1048.325291 373.76 971.269291 661.026133 746.518357 790.3744zM957.240491 503.125333c65.211733-245.213867-80.298667-496.913067-325.512534-562.1248-245.76-64.682667-496.913067 80.298667-562.670933 325.5296C3.316224 511.726933 149.372757 763.426133 394.586624 829.166933c180.002133 47.957333 372.411733-17.783467 484.522667-167.082666a456.379733 456.379733 0 0 0 78.1312-158.976zM420.647424 745.898667l26.2144 2.286933-13.124267 22.528 6.877867 25.9072-25.787733-6.894933-22.135467 13.380266-2.798933-26.368-20.138667-17.629866 24.32-9.6768 9.642667-24.234667 16.930133 20.736v-0.034133z m-163.157333-111.172267l8.106666 25.856 23.2448 13.312-21.0432 15.291733-3.959466 26.538667-21.282134-16.366933-25.856 3.754666 7.936-25.122133-11.6224-24.405333 25.873067 0.6144 18.602667-19.473067z m313.856 111.3088l24.234666-10.8544 0.119467 26.0608L614.405291 779.6736l-25.634134 7.338667-12.3904 22.698666-15.735466-20.770133-26.350934-4.693333 16.145067-20.5312-3.720533-25.873067 24.6272 8.192z m-409.6-270.677333l-0.273067 27.528533 18.039467 19.438933-24.7808 8.7552-11.605334 24.081067-15.069866-21.76-25.173334-4.778667 15.36-21.930666-3.805866-27.050667 24.439466 8.874667c-0.529067-0.904533 22.869333-13.192533 22.869334-13.192534v0.034134z m700.928-161.416534l0.512-27.0848-17.7664-18.978133 24.354133-8.448 12.0832-24.405333 15.086933 21.8112 24.866134 4.317866-15.36 21.896534 3.805866 27.067733-24.183466-8.448-23.415467 12.270933zM622.955691 45.346133l-26.231467-2.286933 13.141333-22.528-6.587733-25.429333 25.4976 6.434133 22.1184-13.4144 2.798933 26.402133 20.138667 17.629867-23.825067 9.386667-9.642666 24.2688-17.408-20.48v0.017066z m-207.940267-4.420266l-1.774933-25.719467-20.138667-17.629867 24.832-8.738133 10.666667-23.569067 17.117866 19.968 26.487467 2.730667-14.882133 21.674667 5.888 25.258666-26.248534-6.638933c1.194667-0.068267-21.947733 12.663467-21.947733 12.663467z m360.209067 123.733333l-7.816534-25.361067-22.9888-12.868266 20.599467-15.018667 3.959467-26.555733 20.804266 16.622933 25.873067-3.720533-7.936 25.088 11.605333 24.456533-25.873066-0.631467-18.2272 17.9712zM204.463957 470.562133c44.680533 168.994133 217.787733 269.448533 386.048 224.597334 28.023467-7.509333 55.125333-18.7904 80.810667-33.621334l8.226133 4.590934c-152.9856 93.934933-352.426667 46.011733-446.088533-106.496a328.362667 328.362667 0 0 1-48.042667-181.367467l8.209067 4.590933c-0.136533 29.934933 3.072 59.204267 10.837333 87.722667zM800.227157 309.248c-44.6464-168.994133-217.787733-269.4144-386.048-224.546133a334.3872 334.3872 0 0 0-81.271466 33.8432l-7.765334-4.846934c152.712533-94.395733 352.1536-46.4896 446.088534 106.513067a328.362667 328.362667 0 0 1 48.0768 181.3504l-8.2432-4.573867c0.136533-29.969067-3.072-59.221333-10.837334-87.739733zM457.716224 677.512533c59.153067 7.543467 119.790933-3.805867 172.9536-31.402666l8.977067 4.795733c-144.4352 79.6672-325.768533 27.4944-405.418667-116.9408-24.064-42.717867-36.6592-91.477333-37.6832-140.663467l9.0112 4.778667c3.6864 142.2336 110.762667 260.898133 252.16 279.432533zM194.616491 137.8304l-27.682134 47.957333 22.784 13.141334c5.870933 3.413333 11.52 4.334933 16.9472 2.816 5.444267-1.536 9.864533-5.256533 13.277867-11.178667l5.376-9.284267c2.133333-3.703467 4.5568-7.253333 7.287467-10.615466 2.730667-3.362133 5.632-5.307733 8.772266-5.8368l19.831467 11.451733-1.041067 1.826133a16.401067 16.401067 0 0 0-8.482133 4.949334 44.970667 44.970667 0 0 0-6.997333 9.216l-5.546667 9.591466c-3.959467 6.877867-8.738133 11.810133-14.318933 14.813867-5.563733 2.986667-12.202667 3.6352-19.899734 1.9456 4.437333 6.007467 6.946133 12.066133 7.543467 18.176 0.6144 6.0928-0.8192 12.117333-4.266667 18.107733-6.229333 10.8032-14.5408 17.066667-24.951466 18.8416-10.410667 1.757867-22.016-1.0752-34.884267-8.4992l-39.765333-22.971733 66.730666-115.575467 19.285334 11.127467z m-17.169067 74.666667l-19.456-11.229867-21.162667 36.676267 20.48 11.8272c7.133867 4.113067 13.4144 5.5296 18.807467 4.2496 5.410133-1.297067 9.796267-4.846933 13.141333-10.666667 3.515733-6.0928 4.369067-11.639467 2.525867-16.657067-1.826133-5.000533-6.621867-9.728-14.336-14.199466z m136.738133-7.850667c7.031467 4.061867 12.680533 8.635733 16.9472 13.704533 4.266667 5.0688 7.2192 9.984 8.8576 14.7456l-13.568 8.994134a44.885333 44.885333 0 0 0-7.509333-11.639467 50.176 50.176 0 0 0-12.509867-9.762133c-7.048533-4.061867-13.585067-4.9152-19.6096-2.542934-6.024533 2.389333-11.178667 7.031467-15.4624 13.943467l-0.068266 0.494933 53.111466 30.651734-6.007466 10.410666c-6.8608 11.895467-15.325867 19.712-25.361067 23.3984-10.0352 3.703467-20.821333 2.218667-32.3584-4.437333-11.195733-6.4-17.9712-15.735467-20.309333-27.989333-2.3552-12.253867 0.119467-24.6784 7.389866-37.2736l1.826134-3.1744c7.2704-12.5952 16.725333-20.821333 28.3648-24.644267 11.6224-3.822933 23.722667-2.133333 36.266666 5.12z m-17.015466 61.730133l-33.5872-19.387733-0.375467 0.3072c-2.628267 6.2464-3.4816 12.049067-2.56 17.408 0.938667 5.376 3.908267 9.506133 8.925867 12.407467 5.563733 3.208533 10.615467 3.857067 15.1552 1.928533s8.3968-5.649067 11.5712-11.1616l0.853333-1.501867z m95.522133-16.401066c5.12 2.952533 9.045333 6.656 11.7248 11.042133 2.679467 4.4032 4.215467 9.437867 4.608 15.104l8.584533-9.557333 15.633067 9.045333-71.509333 123.835733-19.285334-11.127466 27.272534-47.240534a32.6656 32.6656 0 0 1-14.216534 2.542934c-4.7616-0.256-9.472-1.706667-14.1312-4.4032-10.632533-6.144-16.469333-15.104-17.493333-26.88-1.024-11.776 2.4064-24.5248 10.325333-38.229334l0.955734-1.672533c7.2192-12.4928 15.9744-20.872533 26.282666-25.156267 10.2912-4.283733 20.718933-3.396267 31.232 2.696534z m-4.1472 18.551466c-6.621867-3.822933-12.8-4.2496-18.568533-1.297066-5.768533 2.952533-10.939733 8.3968-15.530667 16.3328l-0.955733 1.672533c-5.12 8.891733-7.7312 16.9984-7.799467 24.337067-0.085333 7.338667 3.1744 12.9024 9.728 16.6912 3.925333 2.2528 7.816533 3.328 11.707733 3.208533 3.874133-0.136533 7.6288-1.262933 11.264-3.413333l21.640534-37.461334a23.04 23.04 0 0 0-2.645334-11.4688 22.357333 22.357333 0 0 0-8.840533-8.6016z m102.826667 38.4c7.031467 4.078933 12.680533 8.6528 16.9472 13.7216 4.266667 5.0688 7.2192 9.984 8.8576 14.7456l-13.568 8.994134a44.885333 44.885333 0 0 0-7.509334-11.639467 50.176 50.176 0 0 0-12.509866-9.762133c-7.048533-4.061867-13.568-4.9152-19.6096-2.542934-6.024533 2.389333-11.178667 7.031467-15.445334 13.943467l-0.068266 0.494933 53.0944 30.651734-5.9904 10.410666c-6.877867 11.912533-15.342933 19.712-25.378134 23.3984-10.0352 3.703467-20.821333 2.218667-32.3584-4.437333-11.195733-6.4-17.9712-15.7184-20.309333-27.989333-2.3552-12.253867 0.119467-24.6784 7.389867-37.2736l1.826133-3.1744c7.2704-12.5952 16.725333-20.821333 28.3648-24.644267 11.639467-3.822933 23.722667-2.116267 36.266667 5.12z m-17.015467 61.7472l-33.5872-19.387733-0.375467 0.3072c-2.628267 6.2464-3.4816 12.049067-2.56 17.408 0.938667 5.376 3.908267 9.5232 8.942934 12.424533 5.546667 3.208533 10.5984 3.84 15.138133 1.911467s8.3968-5.649067 11.5712-11.1616l0.8704-1.501867z m102.109867-12.5952c7.048533 4.061867 12.6976 8.635733 16.964266 13.704534 4.266667 5.0688 7.2192 9.984 8.840534 14.7456l-13.550934 8.994133a44.885333 44.885333 0 0 0-7.509333-11.639467 50.176 50.176 0 0 0-12.526933-9.762133c-7.031467-4.061867-13.568-4.9152-19.592534-2.542933-6.0416 2.389333-11.178667 7.031467-15.4624 13.943466l-0.068266 0.494934 53.111466 30.651733-6.007466 10.410667c-6.877867 11.895467-15.325867 19.712-25.361067 23.3984-10.052267 3.703467-20.821333 2.218667-32.375467-4.437334-11.195733-6.4-17.954133-15.7184-20.309333-27.989333-2.338133-12.253867 0.119467-24.6784 7.389867-37.2736l1.8432-3.1744c7.2704-12.5952 16.725333-20.821333 28.347733-24.644267 11.639467-3.822933 23.722667-2.133333 36.266667 5.12z m-17.015467 61.730134l-33.570133-19.387734-0.392534 0.3072c-2.6112 6.2464-3.464533 12.049067-2.542933 17.408 0.9216 5.376 3.8912 9.506133 8.925867 12.424534 5.563733 3.208533 10.5984 3.84 15.138133 1.911466s8.3968-5.649067 11.5712-11.1616l0.8704-1.501866z m84.002133-20.821334l-36.386133 63.0272c0 3.669333 0.9216 7.031467 2.781867 10.120534 1.860267 3.072 4.744533 5.751467 8.6528 8.021333 4.983467 2.8672 9.659733 3.447467 14.062933 1.757867 4.4032-1.706667 8.704-6.161067 12.885333-13.4144l29.610667-51.285334 19.285333 11.144534-32.119466 55.637333a21.2992 21.2992 0 0 1-1.058134 1.621333 26.7776 26.7776 0 0 0-1.262933 2.030934 21.4528 21.4528 0 0 0 1.024 12.544c1.570133 3.874133 4.420267 6.997333 8.533333 9.386666 5.034667 2.901333 9.693867 3.549867 13.960534 1.962667 4.266667-1.5872 8.567467-6.144 12.919466-13.653333l29.5936-51.285334 19.285334 11.127467-29.5424 51.2c-7.031467 12.1856-14.779733 19.831467-23.261867 22.9376-8.465067 3.1232-17.015467 2.2016-25.634133-2.781867a32.631467 32.631467 0 0 1-12.9024-12.8512 34.747733 34.747733 0 0 1-4.027734-17.237333c-4.949333 3.925333-10.154667 5.973333-15.650133 6.1952-5.4784 0.221867-11.025067-1.28-16.64-4.522667a35.959467 35.959467 0 0 1-12.765867-11.810133 33.621333 33.621333 0 0 1-5.102933-15.547733l-7.492267 10.581333-17.629866-10.154667 49.595733-85.896533 19.285333 11.127467z m159.505067 89.856c7.031467 4.061867 12.6976 8.618667 16.964267 13.704534 4.266667 5.0688 7.2192 9.984 8.840533 14.7456l-13.550933 8.994133a44.885333 44.885333 0 0 0-7.509334-11.639467 50.176 50.176 0 0 0-12.526933-9.762133c-7.031467-4.078933-13.568-4.9152-19.6096-2.542933-6.024533 2.389333-11.178667 7.031467-15.445333 13.943466l-0.068267 0.494934 53.111467 30.651733-6.007467 10.410667c-6.877867 11.895467-15.342933 19.694933-25.378133 23.3984-10.0352 3.703467-20.821333 2.218667-32.3584-4.437334-11.195733-6.4-17.9712-15.735467-20.309334-27.989333-2.338133-12.253867 0.119467-24.6784 7.389867-37.2736l1.826133-3.1744c7.287467-12.5952 16.725333-20.821333 28.3648-24.644267 11.639467-3.84 23.722667-2.133333 36.266667 5.12z m-17.015467 61.730134l-33.570133-19.387734-0.392533 0.3072c-2.628267 6.2464-3.464533 12.049067-2.56 17.408 0.938667 5.376 3.925333 9.506133 8.942933 12.407467 5.546667 3.208533 10.5984 3.857067 15.138133 1.928533 4.539733-1.9456 8.3968-5.649067 11.5712-11.1616l0.8704-1.501866z m95.522134-16.401067c5.137067 2.952533 9.045333 6.656 11.7248 11.042133 2.679467 4.4032 4.215467 9.437867 4.608 15.104l8.584533-9.557333 15.650133 9.045333-71.509333 123.835734-19.285333-11.127467 27.272533-47.240533a32.6656 32.6656 0 0 1-14.216533 2.525866c-4.778667-0.238933-9.472-1.706667-14.1312-4.386133-10.6496-6.144-16.469333-15.104-17.5104-26.897067-1.024-11.776 2.4064-24.507733 10.325333-38.229333l0.955733-1.655467c7.2192-12.4928 15.9744-20.8896 26.282667-25.156266 10.308267-4.283733 20.718933-3.396267 31.249067 2.696533z m-4.1472 18.551467c-6.621867-3.822933-12.8-4.2496-18.568534-1.297067-5.768533 2.952533-10.922667 8.3968-15.530666 16.3328l-0.955734 1.672533c-5.12 8.874667-7.7312 16.9984-7.799466 24.337067-0.068267 7.338667 3.1744 12.885333 9.728 16.674133 3.925333 2.269867 7.816533 3.345067 11.707733 3.208534 3.874133-0.119467 7.6288-1.245867 11.264-3.3792l21.640533-37.4784a23.04 23.04 0 0 0-2.645333-11.4688 22.357333 22.357333 0 0 0-8.840533-8.6016z"  horiz-adv-x="1024" />
      
      <glyph glyph-name="expired" unicode="&#58997;" d="M768.073557 827.562667A512.477867 512.477867 0 0 1 512.619691 896C335.297024 896 163.384491 804.386133 68.527957 640-72.698709 395.3152 11.388757 81.646933 256.090624-59.562667 333.675691-104.8064 422.063957-128 511.527424-128c177.322667 0 349.2352 91.613867 444.074667 256 141.2096 244.6848 57.1392 557.806933-187.5456 699.562667zM933.551957 140.919467C799.339691-90.282667 502.908757-170.0352 271.177557-35.84 39.395157 98.3552-39.828309 394.786133 94.383957 626.517333 228.596224 858.282667 525.010091 937.5232 756.741291 803.310933a484.642133 484.642133 0 0 0 238.216533-479.112533 488.618667 488.618667 0 0 0-61.44-183.2448zM746.518357 790.357333a464.298667 464.298667 0 0 1-233.898666 63.061334c-162.218667 0-320.136533-84.0704-406.903467-234.4448-129.365333-224.187733-52.821333-511.453867 171.383467-640.802134a464.298667 464.298667 0 0 1 233.898666-63.061333c162.218667 0 320.136533 84.087467 406.903467 234.4448C1048.325291 373.76 971.269291 661.026133 746.518357 790.3744zM957.240491 503.125333c65.211733-245.213867-80.298667-496.913067-325.512534-562.1248-245.76-64.682667-496.913067 80.298667-562.670933 325.5296C3.316224 511.726933 149.372757 763.426133 394.586624 829.166933c180.002133 47.957333 372.411733-17.783467 484.522667-167.082666a456.379733 456.379733 0 0 0 78.1312-158.976zM420.647424 745.898667l26.2144 2.286933-13.124267 22.528 6.877867 25.9072-25.787733-6.894933-22.135467 13.380266-2.798933-26.368-20.138667-17.629866 24.32-9.6768 9.642667-24.234667 16.930133 20.736v-0.034133z m-163.157333-111.172267l8.106666 25.856 23.2448 13.312-21.0432 15.291733-3.959466 26.538667-21.282134-16.366933-25.856 3.754666 7.936-25.122133-11.6224-24.405333 25.873067 0.6144 18.602667-19.473067z m313.856 111.3088l24.234666-10.8544 0.119467 26.0608L614.405291 779.6736l-25.634134 7.338667-12.3904 22.698666-15.735466-20.770133-26.350934-4.693333 16.145067-20.5312-3.720533-25.873067 24.6272 8.192z m-409.6-270.677333l-0.273067 27.528533 18.039467 19.438933-24.7808 8.7552-11.605334 24.081067-15.069866-21.76-25.173334-4.778667 15.36-21.930666-3.805866-27.050667 24.439466 8.874667c-0.529067-0.904533 22.869333-13.192533 22.869334-13.192534v0.034134z m700.928-161.416534l0.512-27.0848-17.7664-18.978133 24.354133-8.448 12.0832-24.405333 15.086933 21.8112 24.866134 4.317866-15.36 21.896534 3.805866 27.067733-24.183466-8.448-23.415467 12.270933zM622.955691 45.346133l-26.231467-2.286933 13.141333-22.528-6.587733-25.429333 25.4976 6.434133 22.1184-13.4144 2.798933 26.402133 20.138667 17.629867-23.825067 9.386667-9.642666 24.2688-17.408-20.48v0.017066z m-207.940267-4.420266l-1.774933-25.719467-20.138667-17.629867 24.832-8.738133 10.666667-23.569067 17.117866 19.968 26.487467 2.730667-14.882133 21.674667 5.888 25.258666-26.248534-6.638933c1.194667-0.068267-21.947733 12.663467-21.947733 12.663467z m360.209067 123.733333l-7.816534-25.361067-22.9888-12.868266 20.599467-15.018667 3.959467-26.555733 20.804266 16.622933 25.873067-3.720533-7.936 25.088 11.605333 24.456533-25.873066-0.631467-18.2272 17.9712zM204.463957 470.562133c44.680533 168.994133 217.787733 269.448533 386.048 224.597334 28.023467-7.509333 55.125333-18.7904 80.810667-33.621334l8.226133 4.590934c-152.9856 93.934933-352.426667 46.011733-446.088533-106.496a328.362667 328.362667 0 0 1-48.042667-181.367467l8.209067 4.590933c-0.136533 29.934933 3.072 59.204267 10.837333 87.722667zM800.227157 309.248c-44.6464-168.994133-217.787733-269.4144-386.048-224.546133a334.3872 334.3872 0 0 0-81.271466 33.8432l-7.765334-4.846934c152.712533-94.395733 352.1536-46.4896 446.088534 106.513067a328.362667 328.362667 0 0 1 48.0768 181.3504l-8.2432-4.573867c0.136533-29.969067-3.072-59.221333-10.837334-87.739733zM457.716224 677.512533c59.153067 7.543467 119.790933-3.805867 172.9536-31.402666l8.977067 4.795733c-144.4352 79.6672-325.768533 27.4944-405.418667-116.9408-24.064-42.717867-36.6592-91.477333-37.6832-140.663467l9.0112 4.778667c3.6864 142.2336 110.762667 260.898133 252.16 279.432533zM340.707157 232.157867l-8.891733 15.4112-53.3504-30.805334-21.128533 36.590934 45.243733 26.129066-8.925867 15.479467-45.2608-26.112-18.8416 32.6144 52.804267 30.481067-8.942933 15.479466-72.0896-41.608533 66.730666-115.592533 72.6528 41.9328z m29.917867 17.288533l-0.8192 39.748267 34.013867-20.599467 21.9136 12.6464-52.855467 27.392 2.4576 58.0608-22.152533-12.8 1.143466-38.621867-32.648533 20.4288-21.9136-12.6464 51.5072-26.897066-2.7136-59.460267 22.0672 12.7488z m106.24 17.288533l-24.064 41.6768c4.6592-1.826133 9.3696-2.525867 14.1312-2.0992 4.778667 0.426667 9.591467 2.048 14.455467 4.846934 10.478933 6.058667 16.4352 14.609067 17.885866 25.668266 1.4336 11.076267-1.450667 22.852267-8.6528 35.328l-0.9728 1.672534c-7.901867 13.7216-17.237333 23.057067-27.989333 28.040533-10.734933 4.983467-21.4016 4.420267-31.982933-1.706667-5.12-2.952533-9.045333-6.621867-11.707734-10.973866a33.0752 33.0752 0 0 1-4.642133-14.967467l-8.1408 9.693867-16.264533-9.386667 68.6592-118.920533 19.285333 11.127466z m-9.847467 56.661334c-4.130133-2.389333-8.055467-3.584-11.793066-3.584-3.754667 0-7.338667 1.024-10.752 3.054933l-22.4256 38.826667a21.930667 21.930667 0 0 0 2.594133 11.076266c1.826133 3.345067 4.727467 6.161067 8.7552 8.482134 6.570667 3.7888 13.1072 3.857067 19.626667 0.170666 6.5536-3.669333 12.356267-9.898667 17.408-18.670933l0.9728-1.672533c4.5568-7.8848 6.6048-15.189333 6.144-21.9136-0.4608-6.724267-3.976533-11.9808-10.530134-15.7696z m22.391467 137.216l-9.762133 16.896-19.285334-11.144534 9.762134-16.896 19.285333 11.127467z m61.7472-106.939734l-49.595733 85.896534-19.285334-11.144534 49.595734-85.896533 19.285333 11.144533z m40.874667 23.6032l-34.474667 59.6992c-0.290133 3.703467 0.341333 7.0656 1.962667 10.103467 1.5872 3.037867 4.266667 5.649067 8.021333 7.816533l8.448 4.437334-8.106667 19.370666c-1.006933-0.238933-2.048-0.546133-3.1744-0.938666a20.753067 20.753067 0 0 1-3.413333-1.604267 22.528 22.528 0 0 1-9.6256-10.530133 31.812267 31.812267 0 0 1-2.423467-15.1552l-8.465066 11.7248-17.629867-10.171734 49.595733-85.896533 19.285334 11.144533z m75.195733 41.181867c7.031467 4.061867 12.6976 8.635733 16.964267 13.704533 4.266667 5.085867 7.2192 9.984 8.840533 14.7456l-13.550933 8.994134a44.885333 44.885333 0 0 0-7.509334-11.639467 50.176 50.176 0 0 0-12.526933-9.762133c-7.031467-4.061867-13.568-4.9152-19.592533-2.525867-6.0416 2.372267-11.195733 7.0144-15.4624 13.9264l-0.068267 0.494933 53.111467 30.6688-6.007467 10.3936c-6.877867 11.912533-15.325867 19.712-25.378133 23.3984-10.0352 3.703467-20.821333 2.218667-32.3584-4.437333-11.195733-6.4-17.9712-15.7184-20.309334-27.989333-2.338133-12.2368 0.119467-24.6784 7.389867-37.2736l1.826133-3.1744c7.287467-12.5952 16.725333-20.804267 28.3648-24.644267 11.639467-3.822933 23.722667-2.116267 36.266667 5.12z m-17.015467 61.730133L616.641024 460.8l-0.392533 0.3072c-2.628267 6.2464-3.464533 12.049067-2.56 17.408 0.938667 5.376 3.925333 9.5232 8.942933 12.424533 5.546667 3.208533 10.5984 3.84 15.138133 1.911467s8.3968-5.649067 11.5712-11.1616l0.8704-1.501867z m95.522134-16.401066c5.137067 2.9696 9.045333 6.656 11.7248 11.0592 2.679467 4.4032 4.215467 9.437867 4.608 15.104l8.584533-9.557334 15.650133 9.045334-71.509333 123.835733-19.285333-11.144533 27.272533-47.240534a32.6656 32.6656 0 0 1-14.216533 2.542934c-4.778667-0.238933-9.472-1.706667-14.1312-4.4032-10.6496-6.144-16.469333-15.104-17.5104-26.88-1.024-11.776 2.4064-24.5248 10.325333-38.229334l0.955733-1.672533c7.2192-12.4928 15.9744-20.872533 26.282667-25.156267 10.308267-4.283733 20.718933-3.3792 31.249067 2.696534z m-4.1472 18.568533c-6.621867-3.822933-12.8-4.266667-18.568534-1.314133-5.768533 2.952533-10.922667 8.413867-15.530666 16.349866l-0.955734 1.655467c-5.12 8.891733-7.7312 17.015467-7.799466 24.337067-0.068267 7.338667 3.1744 12.9024 9.728 16.6912 3.925333 2.2528 7.8336 3.328 11.707733 3.208533 3.874133-0.119467 7.645867-1.262933 11.264-3.396267l21.640533-37.461333a23.04 23.04 0 0 0-2.645333-11.485867 22.357333 22.357333 0 0 0-8.840533-8.584533z"  horiz-adv-x="1024" />
      
      <glyph glyph-name="coupon" unicode="&#59000;" d="M512 384m-512 0a512 512 0 1 1 1024 0 512 512 0 1 1-1024 0ZM588.458667 588.424533a18.158933 18.158933 0 0 0 0-36.317866l-183.7056-152.644267c-0.170667 0-5.495467-49.732267-15.940267-149.162667 93.0816 30.446933 153.3952 10.0352 180.9408-61.2352a18.158933 18.158933 0 0 0 0-36.317866H207.872a37.000533 37.000533 0 0 0-36.898133 37.000533v107.008c0 17.7152 12.288 36.010667 28.740266 42.666667 7.2704 3.072 14.165333 7.031467 20.48 11.741866 11.127467 8.226133 17.134933 16.725333 17.134934 24.132267 0 7.441067-6.007467 15.906133-17.134934 24.1664a99.976533 99.976533 0 0 1-20.48 11.741867c-16.452267 6.656-28.7744 24.917333-28.7744 42.666666v97.553067c0.034133 20.3776 16.554667 37.000533 36.932267 37.000533h380.586667zM451.549867 152.746667a18.158933 18.158933 0 0 0 0 36.317866H219.921067c-6.690133 0 70.690133 127.044267 232.174933 381.201067 0 10.0352 8.157867 18.158933 18.158933 18.158933H832.170667c20.3776 0 36.932267-16.622933 36.932266-37.000533v-107.008c0-17.7152-12.322133-36.010667-28.7744-42.666667-7.2704-3.072-14.1312-7.031467-20.48-11.741866-11.127467-8.260267-17.134933-16.725333-17.134933-24.1664 0-7.406933 6.007467-15.872 17.169067-24.132267 7.714133-5.700267 15.6672-9.796267 20.48-11.741867 16.418133-6.656 28.740267-24.951467 28.740266-42.666666v-97.553067c0-20.3776-16.520533-36.932267-36.932266-37.000533H451.584zM662.4256 492.100267c3.447467 4.096 7.5776 5.9392 12.288 5.461333 4.676267-0.443733 8.874667-2.082133 12.561067-4.9152 3.413333-2.1504 5.802667-5.597867 6.621866-9.557333a11.1616 11.1616 0 0 0-3.549866-10.9568l-203.776-222.173867c-3.720533-4.3008-7.816533-6.485333-12.288-6.485333a22.254933 22.254933 0 0 0-13.824 5.666133 16.725333 16.725333 0 0 0-7.202134 10.1376c-0.7168 3.754667 0.955733 7.68 5.051734 11.810133l204.117333 220.9792z m-151.313067-71.509334c0 12.3904-1.365333 21.538133-3.9936 27.4432-2.6624 5.905067-7.0656 8.874667-13.2096 8.874667-6.144 0-10.5472-2.9696-13.2096-8.874667-2.628267-5.905067-3.9936-15.018667-3.9936-27.4432 0-12.3904 1.365333-21.504 3.9936-27.4432 2.6624-5.905067 7.0656-8.874667 13.2096-8.874666 6.144 0 10.5472 2.9696 13.2096 8.874666 2.6624 5.905067 3.9936 15.0528 3.9936 27.4432z m-67.857066 0c0 20.48 4.573867 36.078933 13.653333 46.865067 9.1136 10.786133 21.469867 16.1792 37.000533 16.1792 15.5648 0 27.886933-5.393067 36.9664-16.1792 9.147733-10.786133 13.687467-26.4192 13.687467-46.865067 0-20.48-4.573867-36.078933-13.653333-46.865066-9.1136-10.786133-21.435733-16.1792-37.000534-16.1792-15.530667 0-27.886933 5.393067-36.9664 16.1792-9.147733 10.786133-13.653333 26.4192-13.653333 46.865066z m220.706133-105.028266c0 12.424533-1.365333 21.572267-3.9936 27.477333-2.6624 5.905067-7.0656 8.874667-13.175467 8.874667-6.144 0-10.581333-2.9696-13.2096-8.874667-2.6624-5.905067-4.027733-15.0528-4.027733-27.477333 0-12.356267 1.365333-21.504 4.027733-27.409067 2.628267-5.9392 7.031467-8.874667 13.175467-8.874667 6.144 0 10.5472 2.935467 13.2096 8.874667 2.6624 5.870933 3.9936 15.018667 3.9936 27.409067z m-67.857067 0c0 20.48 4.573867 36.113067 13.653334 46.865066 9.147733 10.820267 21.469867 16.213333 37.000533 16.213334 15.5648 0 27.886933-5.393067 37.000533-16.1792 9.1136-10.786133 13.653333-26.4192 13.653334-46.865067 0-20.48-4.573867-36.078933-13.653334-46.865067-9.1136-10.820267-21.435733-16.213333-37.000533-16.213333-15.530667 0-27.886933 5.393067-37.000533 16.1792-9.079467 10.820267-13.653333 26.4192-13.653334 46.865067zM298.052267 552.106667a18.158933 18.158933 0 1 0 36.317866 0v-72.635734a18.158933 18.158933 0 1 0-36.317866 0v72.635734z m0-145.2032a18.158933 18.158933 0 0 0 36.317866 0v-72.635734a18.158933 18.158933 0 0 0-36.317866 0V406.869333z m0-145.237334a18.158933 18.158933 0 0 0 36.317866 0v-72.6016a18.158933 18.158933 0 0 0-36.317866 0v72.6016z"  horiz-adv-x="1024" />
      
      <glyph glyph-name="arrow" unicode="&#59029;" d="M153.6 371.2a25.6 25.6 0 1 0 0 51.2h740.2752a25.6 25.6 0 1 0 0-51.2H153.6zM909.9008 416.7936a25.6 25.6 0 0 0-34.3296-37.9648l-211.1488 190.976a25.6 25.6 0 0 0 34.3552 37.9904l211.1232-190.976zM702.4896 193.1264a25.6 25.6 0 0 0-34.2272 38.0672l206.6432 185.7792a25.6 25.6 0 1 0 34.2272-38.0672l-206.6432-185.7792z"  horiz-adv-x="1024" />
      
      <glyph glyph-name="tishi" unicode="&#58933;" d="M512 896a512 512 0 1 1 0-1024 512 512 0 0 1 0 1024z m0-809.117538a54.823385 54.823385 0 1 0 0 109.725538 54.823385 54.823385 0 0 0 0-109.725538z m54.823385 256a54.902154 54.902154 0 1 0-109.725539 0V626.294154a54.902154 54.902154 0 1 0 109.725539 0v-283.411692z"  horiz-adv-x="1024" />
      
      <glyph glyph-name="jinjijiuyi" unicode="&#58918;" d="M504.921505 836.759704c185.988741 0 336.896-134.485333 336.896-300.373334h65.422222c0 198.125037-180.148148 358.703407-402.318222 358.703408-222.170074 0-402.318222-160.57837-402.318222-358.703408h65.422222c0 165.888 150.945185 300.373333 336.896 300.373334z m-369.588148-804.02963a32.692148 32.692148 0 0 0-32.730074 32.768V536.38637h65.422222v-470.888296a32.692148 32.692148 0 0 0-32.692148-32.730074z m739.176296 0a32.692148 32.692148 0 0 0-32.692148 32.768V536.38637h65.422222v-470.888296a32.768 32.768 0 0 0-32.692148-32.730074z m-154.699852 35.915852a32.692148 32.692148 0 0 0-32.730074-32.730074h-366.364444a32.692148 32.692148 0 1 0 0 65.422222h366.364444c18.128593 0 32.730074-14.601481 32.730074-32.692148z m286.947556-141.691259a32.692148 32.692148 0 0 0-32.730074-32.730074H33.805653a32.692148 32.692148 0 1 0 0 65.460148h940.373334c18.014815 0 32.616296-14.639407 32.616296-32.730074zM397.666987 725.522963a32.730074 32.730074 0 0 0 0-46.307556L319.729209 601.391407a32.730074 32.730074 0 1 0-46.307556 46.345482l77.786074 77.786074a32.843852 32.843852 0 0 0 46.45926 0zM355.379579 376.414815h192.853334V655.663407zM624.805357 431.028148h-192.853333v-279.286518z"  horiz-adv-x="1024" />
      
      <glyph glyph-name="GroupTicket" unicode="&#59171;" d="M284.672 2.4064H106.0352a24.2688 24.2688 0 0 0-24.2176 22.6304l-15.36 213.504-52.5312 26.3168a24.1664 24.1664 0 0 0-13.4144 21.7088V416.4608a121.856 121.856 0 0 0 121.8048 121.8048h129.8944c46.7456 0 90.0096-27.392 110.08-69.7344a24.3712 24.3712 0 1 0-44.032-20.8896 73.4208 73.4208 0 0 1-66.048 41.8816H122.3168A73.216 73.216 0 0 1 49.2032 416.4608v-114.8928l51.456-25.7536c7.68-3.84 12.8-11.4688 13.4144-20.0704l14.592-204.5952H284.672a24.3712 24.3712 0 1 0 0-48.7424zM187.2384 586.9568a121.856 121.856 0 0 0 0.0512 243.6096 121.856 121.856 0 0 0-0.0512-243.6096z m0 194.8672c-40.2944 0-73.0624-32.768-73.0624-73.0624s32.768-73.0624 73.0624-73.0624 73.0624 32.768 73.0624 73.0624-32.768 73.0624-73.0624 73.0624zM918.016 2.4064h-178.688a24.3712 24.3712 0 0 0 0 48.7424h156.0064l14.592 204.6976a24.3712 24.3712 0 0 0 13.4144 20.0704l51.456 25.7536V416.4608c0 40.2944-32.768 73.0624-73.1136 73.0624h-129.8944c-28.1088 0-53.9648-16.384-66.048-41.8816a24.3712 24.3712 0 1 0-44.032 20.8896 122.5216 122.5216 0 0 0 110.08 69.7344h129.8944a121.856 121.856 0 0 0 121.856-121.8048v-129.8944c0-9.216-5.2224-17.664-13.568-21.8112l-52.4288-26.1632-15.2576-213.504a24.4736 24.4736 0 0 0-24.32-22.6816h0.0512zM836.7616 586.9568a121.856 121.856 0 0 0 0 243.6096 121.856 121.856 0 0 0-0.0512-243.6096h0.0512z m0 194.8672c-40.2944 0-73.0624-32.768-73.0624-73.0624s32.768-73.0624 73.0624-73.0624 73.0624 32.768 73.0624 73.0624-32.768 73.0624-73.0624 73.0624zM609.4336-127.488H414.5664a24.4224 24.4224 0 0 0-24.3712 22.8352l-15.0016 241.152-62.8224 12.544a24.32 24.32 0 0 0-19.5584 23.8592V384A154.4704 154.4704 0 0 0 446.976 538.2656h129.9456A154.4704 154.4704 0 0 0 731.136 384v-211.0976c0-11.5712-8.192-21.6064-19.5584-23.8592l-62.8224-12.544-15.0016-241.152a24.4224 24.4224 0 0 0-24.3712-22.8352h0.0512z m-172.032 48.6912h149.0944l14.848 237.0048a24.32 24.32 0 0 0 19.456 22.3232l61.5936 12.288V384a105.728 105.728 0 0 1-105.5232 105.5232H446.976A105.728 105.728 0 0 1 341.504 384v-191.0784l61.5936-12.288a24.1664 24.1664 0 0 0 19.456-22.3232l14.848-237.056v-0.0512zM512 586.9568a154.4704 154.4704 0 0 0-154.2656 154.2656A154.4704 154.4704 0 0 0 512 895.488a154.4704 154.4704 0 0 0 154.2656-154.2656A154.4704 154.4704 0 0 0 512 586.9568zM512 846.848a105.728 105.728 0 0 1-105.5232-105.5744c0-58.1632 47.36-105.5232 105.5232-105.5232a105.728 105.728 0 0 1 105.5232 105.5232A105.728 105.728 0 0 1 512 846.848z"  horiz-adv-x="1024" />
      
      </font>
</defs>
</svg>
